<svg width="500" height="500" viewBox="0 0 500 500" fill="none" xmlns="http://www.w3.org/2000/svg">
<path d="M74.625 108.292L146.167 34.2135C166.88 21.7968 190.24 13.0052 214.865 8.60413L51.2708 177.682C54.6927 152.854 62.7031 129.5 74.625 108.292Z" fill="#9EF1F1"/>
<mask id="mask0_23_44" style="mask-type:luminance" maskUnits="userSpaceOnUse" x="50" y="5" width="248" height="254">
<path d="M50 5.55725H297.333V258.667H50V5.55725Z" fill="white"/>
</mask>
<g mask="url(#mask0_23_44)">
<path d="M50 221.464L258.552 5.67188C271.745 6.16146 284.745 8.02083 296.859 11.1458L58.3073 258.307C54.1042 246.094 51.2708 233.974 50 221.464Z" fill="white"/>
</g>
<path d="M70.7188 287.823L104.141 253.323C110.104 247.068 120.167 246.875 126.422 252.833C132.677 259.089 132.875 268.865 126.719 275.12L87.0365 316.359C81.0781 306.979 75.6042 297.401 70.7188 287.823ZM328.036 21.5052C338.396 25.6094 347.974 30.7917 357.063 36.75L201.281 197.912C195.323 204.359 185.255 204.359 179 198.401C172.745 192.438 172.552 182.37 178.708 176.115L328.036 21.5052Z" fill="#0CE8E6" fill-opacity="0.733333"/>
<path d="M104.432 340.99L190.729 251.37L138.344 232.703C131.896 231.432 127.984 225.177 129.255 218.922C130.526 212.474 136.781 208.271 143.036 209.641L216.625 224.688L269.203 170.255C275.167 164 285.229 163.802 291.484 169.958C297.74 175.922 297.938 185.792 291.781 192.245L239.203 246.677L256.792 319.781C258.354 326.036 254.448 332.193 248.292 333.755C241.839 335.318 235.583 331.411 234.021 325.255L213.599 273.458L124.177 365.714C117.333 357.505 110.594 349.198 104.432 340.99ZM380.807 54.3438C388.823 61.3802 396.349 68.8073 403.089 76.9219L342.5 139.661C336.245 146.115 326.474 146.115 320.219 140.151C313.964 134.188 313.766 124.125 319.729 117.87L380.807 54.3438Z" fill="#FDFDFD"/>
<path d="M143.818 387.802L192 338.057C197.958 331.802 208.026 331.604 214.281 337.568C220.536 343.823 220.536 353.594 214.573 359.849L165.615 410.672C158.281 403.146 151.052 395.62 143.818 387.802ZM420.484 101.255C426.448 110.542 431.333 120.703 435.536 131.063L289.141 282.938C282.885 289.193 273.115 289.193 266.859 283.229C260.604 277.266 260.406 267.203 266.37 260.948L420.484 101.255Z" fill="#0CE8E6"/>
<mask id="mask1_23_44" style="mask-type:luminance" maskUnits="userSpaceOnUse" x="185" y="162" width="265" height="293">
<path d="M185.333 162.667H450V454.667H185.333V162.667Z" fill="white"/>
</mask>
<g mask="url(#mask1_23_44)">
<path d="M186.526 431.583L445.307 163.411C448.141 176.411 449.708 190.094 450 203.87L208.807 453.672C201.578 446.443 194.052 439.109 186.526 431.583Z" fill="white"/>
</g>
<mask id="mask2_23_44" style="mask-type:luminance" maskUnits="userSpaceOnUse" x="229" y="254" width="214" height="241">
<path d="M229.333 254.667H442.667V494.5H229.333V254.667Z" fill="white"/>
</mask>
<g mask="url(#mask2_23_44)">
<path d="M229.818 474.391L442.281 254.693C413.255 347.146 310.443 430.609 249.755 494.328C243.5 487.88 236.76 481.135 229.818 474.391Z" fill="#9EF1F1"/>
</g>
</svg>
