<svg xmlns="http://www.w3.org/2000/svg" xmlns:xlink="http://www.w3.org/1999/xlink" width="500" zoomAndPan="magnify" viewBox="0 0 375 374.999991" height="500" preserveAspectRatio="xMidYMid meet" version="1.0"><defs><g/><clipPath id="e52f60f5d6"><path d="M 59 156.636719 L 100 156.636719 L 100 206.136719 L 59 206.136719 Z M 59 156.636719 " clip-rule="nonzero"/></clipPath><clipPath id="79aff460d3"><path d="M 55.117188 160 L 113.617188 160 L 113.617188 189 L 55.117188 189 Z M 55.117188 160 " clip-rule="nonzero"/></clipPath></defs><rect x="-37.5" width="450" fill="#ffffff" y="-37.499999" height="449.999989" fill-opacity="1"/><rect x="-37.5" width="450" fill="#ffffff" y="-37.499999" height="449.999989" fill-opacity="1"/><g fill="#2e3793" fill-opacity="1"><g transform="translate(5.805384, 200.500793)"><g><path d="M 40.03125 0 L 31.25 0 L 26.3125 -19.125 C 26.132812 -19.800781 25.820312 -21.203125 25.375 -23.328125 C 24.9375 -25.460938 24.6875 -26.898438 24.625 -27.640625 C 24.519531 -26.734375 24.269531 -25.289062 23.875 -23.3125 C 23.476562 -21.332031 23.171875 -19.914062 22.953125 -19.0625 L 18.046875 0 L 9.28125 0 L 0 -36.390625 L 7.59375 -36.390625 L 12.25 -16.53125 C 13.0625 -12.863281 13.648438 -9.6875 14.015625 -7 C 14.117188 -7.945312 14.347656 -9.410156 14.703125 -11.390625 C 15.054688 -13.367188 15.390625 -14.90625 15.703125 -16 L 21.015625 -36.390625 L 28.3125 -36.390625 L 33.609375 -16 C 33.835938 -15.09375 34.125 -13.703125 34.46875 -11.828125 C 34.820312 -9.953125 35.09375 -8.34375 35.28125 -7 C 35.445312 -8.289062 35.710938 -9.898438 36.078125 -11.828125 C 36.441406 -13.765625 36.769531 -15.332031 37.0625 -16.53125 L 41.703125 -36.390625 L 49.296875 -36.390625 Z M 40.03125 0 "/></g></g></g><g fill="#2e3793" fill-opacity="1"><g transform="translate(55.111822, 200.500793)"><g/></g></g><g fill="#2e3793" fill-opacity="1"><g transform="translate(68.35689, 200.500793)"><g/></g></g><g fill="#2e3793" fill-opacity="1"><g transform="translate(81.601958, 200.500793)"><g/></g></g><g fill="#2e3793" fill-opacity="1"><g transform="translate(94.847026, 200.500793)"><g/></g></g><g fill="#2e3793" fill-opacity="1"><g transform="translate(108.097844, 200.500793)"><g><path d="M 29.671875 0 L 22.078125 0 L 22.078125 -16.25 C 22.078125 -18.257812 21.71875 -19.765625 21 -20.765625 C 20.289062 -21.773438 19.15625 -22.28125 17.59375 -22.28125 C 15.46875 -22.28125 13.929688 -21.570312 12.984375 -20.15625 C 12.046875 -18.738281 11.578125 -16.382812 11.578125 -13.09375 L 11.578125 0 L 3.984375 0 L 3.984375 -27.828125 L 9.78125 -27.828125 L 10.796875 -24.265625 L 11.234375 -24.265625 C 12.078125 -25.609375 13.238281 -26.625 14.71875 -27.3125 C 16.207031 -28.007812 17.898438 -28.359375 19.796875 -28.359375 C 23.023438 -28.359375 25.476562 -27.484375 27.15625 -25.734375 C 28.832031 -23.984375 29.671875 -21.453125 29.671875 -18.140625 Z M 29.671875 0 "/></g></g></g><g fill="#2e3793" fill-opacity="1"><g transform="translate(141.608862, 200.500793)"><g><path d="M 12.796875 0.5 C 9.523438 0.5 6.957031 -0.769531 5.09375 -3.3125 C 3.226562 -5.851562 2.296875 -9.367188 2.296875 -13.859375 C 2.296875 -18.429688 3.242188 -21.988281 5.140625 -24.53125 C 7.035156 -27.082031 9.65625 -28.359375 13 -28.359375 C 16.5 -28.359375 19.171875 -26.992188 21.015625 -24.265625 L 21.265625 -24.265625 C 20.878906 -26.347656 20.6875 -28.203125 20.6875 -29.828125 L 20.6875 -38.734375 L 28.3125 -38.734375 L 28.3125 0 L 22.484375 0 L 21.015625 -3.609375 L 20.6875 -3.609375 C 18.957031 -0.867188 16.328125 0.5 12.796875 0.5 Z M 15.453125 -5.546875 C 17.398438 -5.546875 18.820312 -6.109375 19.71875 -7.234375 C 20.625 -8.367188 21.117188 -10.289062 21.203125 -13 L 21.203125 -13.8125 C 21.203125 -16.800781 20.742188 -18.941406 19.828125 -20.234375 C 18.910156 -21.535156 17.410156 -22.1875 15.328125 -22.1875 C 13.640625 -22.1875 12.328125 -21.46875 11.390625 -20.03125 C 10.453125 -18.59375 9.984375 -16.503906 9.984375 -13.765625 C 9.984375 -11.023438 10.457031 -8.96875 11.40625 -7.59375 C 12.351562 -6.226562 13.703125 -5.546875 15.453125 -5.546875 Z M 15.453125 -5.546875 "/></g></g></g><g fill="#2e3793" fill-opacity="1"><g transform="translate(173.875044, 200.500793)"><g><path d="M 15.515625 -22.953125 C 13.898438 -22.953125 12.632812 -22.441406 11.71875 -21.421875 C 10.8125 -20.398438 10.289062 -18.953125 10.15625 -17.078125 L 20.8125 -17.078125 C 20.78125 -18.953125 20.289062 -20.398438 19.34375 -21.421875 C 18.394531 -22.441406 17.117188 -22.953125 15.515625 -22.953125 Z M 16.578125 0.5 C 12.097656 0.5 8.597656 -0.734375 6.078125 -3.203125 C 3.554688 -5.679688 2.296875 -9.1875 2.296875 -13.71875 C 2.296875 -18.382812 3.457031 -21.988281 5.78125 -24.53125 C 8.113281 -27.082031 11.335938 -28.359375 15.453125 -28.359375 C 19.390625 -28.359375 22.453125 -27.238281 24.640625 -25 C 26.835938 -22.757812 27.9375 -19.660156 27.9375 -15.703125 L 27.9375 -12.03125 L 9.984375 -12.03125 C 10.066406 -9.863281 10.703125 -8.175781 11.890625 -6.96875 C 13.085938 -5.757812 14.765625 -5.15625 16.921875 -5.15625 C 18.597656 -5.15625 20.179688 -5.328125 21.671875 -5.671875 C 23.171875 -6.023438 24.734375 -6.582031 26.359375 -7.34375 L 26.359375 -1.46875 C 25.035156 -0.800781 23.617188 -0.304688 22.109375 0.015625 C 20.597656 0.335938 18.753906 0.5 16.578125 0.5 Z M 16.578125 0.5 "/></g></g></g><g fill="#2e3793" fill-opacity="1"><g transform="translate(204.000104, 200.500793)"><g><path d="M 19.515625 -28.359375 C 20.546875 -28.359375 21.398438 -28.28125 22.078125 -28.125 L 21.515625 -21.015625 C 20.898438 -21.179688 20.148438 -21.265625 19.265625 -21.265625 C 16.847656 -21.265625 14.960938 -20.640625 13.609375 -19.390625 C 12.253906 -18.148438 11.578125 -16.410156 11.578125 -14.171875 L 11.578125 0 L 3.984375 0 L 3.984375 -27.828125 L 9.734375 -27.828125 L 10.859375 -23.15625 L 11.234375 -23.15625 C 12.085938 -24.71875 13.25 -25.972656 14.71875 -26.921875 C 16.1875 -27.878906 17.785156 -28.359375 19.515625 -28.359375 Z M 19.515625 -28.359375 "/></g></g></g><g fill="#2e3793" fill-opacity="1"><g transform="translate(227.154077, 200.500793)"><g><path d="M 12.296875 -19.265625 L 14.84375 -19.265625 C 17.207031 -19.265625 18.976562 -19.734375 20.15625 -20.671875 C 21.34375 -21.609375 21.9375 -22.972656 21.9375 -24.765625 C 21.9375 -26.578125 21.441406 -27.914062 20.453125 -28.78125 C 19.460938 -29.644531 17.914062 -30.078125 15.8125 -30.078125 L 12.296875 -30.078125 Z M 29.71875 -25.046875 C 29.71875 -21.128906 28.492188 -18.128906 26.046875 -16.046875 C 23.597656 -13.972656 20.117188 -12.9375 15.609375 -12.9375 L 12.296875 -12.9375 L 12.296875 0 L 4.578125 0 L 4.578125 -36.390625 L 16.203125 -36.390625 C 20.617188 -36.390625 23.972656 -35.4375 26.265625 -33.53125 C 28.566406 -31.632812 29.71875 -28.804688 29.71875 -25.046875 Z M 29.71875 -25.046875 "/></g></g></g><g fill="#2e3793" fill-opacity="1"><g transform="translate(259.171291, 200.500793)"><g><path d="M 11.578125 0 L 3.984375 0 L 3.984375 -38.734375 L 11.578125 -38.734375 Z M 11.578125 0 "/></g></g></g><g fill="#2e3793" fill-opacity="1"><g transform="translate(274.731764, 200.500793)"><g><path d="M 21.65625 0 L 20.1875 -3.78125 L 19.984375 -3.78125 C 18.710938 -2.175781 17.398438 -1.0625 16.046875 -0.4375 C 14.691406 0.1875 12.925781 0.5 10.75 0.5 C 8.082031 0.5 5.976562 -0.257812 4.4375 -1.78125 C 2.90625 -3.3125 2.140625 -5.488281 2.140625 -8.3125 C 2.140625 -11.269531 3.171875 -13.445312 5.234375 -14.84375 C 7.304688 -16.25 10.425781 -17.023438 14.59375 -17.171875 L 19.421875 -17.328125 L 19.421875 -18.546875 C 19.421875 -21.367188 17.976562 -22.78125 15.09375 -22.78125 C 12.863281 -22.78125 10.25 -22.109375 7.25 -20.765625 L 4.734375 -25.890625 C 7.929688 -27.566406 11.484375 -28.40625 15.390625 -28.40625 C 19.117188 -28.40625 21.976562 -27.59375 23.96875 -25.96875 C 25.96875 -24.34375 26.96875 -21.867188 26.96875 -18.546875 L 26.96875 0 Z M 19.421875 -12.890625 L 16.484375 -12.796875 C 14.273438 -12.734375 12.628906 -12.332031 11.546875 -11.59375 C 10.472656 -10.863281 9.9375 -9.753906 9.9375 -8.265625 C 9.9375 -6.117188 11.164062 -5.046875 13.625 -5.046875 C 15.375 -5.046875 16.773438 -5.550781 17.828125 -6.5625 C 18.890625 -7.582031 19.421875 -8.929688 19.421875 -10.609375 Z M 19.421875 -12.890625 "/></g></g></g><g fill="#2e3793" fill-opacity="1"><g transform="translate(305.529044, 200.500793)"><g><path d="M 29.671875 0 L 22.078125 0 L 22.078125 -16.25 C 22.078125 -18.257812 21.71875 -19.765625 21 -20.765625 C 20.289062 -21.773438 19.15625 -22.28125 17.59375 -22.28125 C 15.46875 -22.28125 13.929688 -21.570312 12.984375 -20.15625 C 12.046875 -18.738281 11.578125 -16.382812 11.578125 -13.09375 L 11.578125 0 L 3.984375 0 L 3.984375 -27.828125 L 9.78125 -27.828125 L 10.796875 -24.265625 L 11.234375 -24.265625 C 12.078125 -25.609375 13.238281 -26.625 14.71875 -27.3125 C 16.207031 -28.007812 17.898438 -28.359375 19.796875 -28.359375 C 23.023438 -28.359375 25.476562 -27.484375 27.15625 -25.734375 C 28.832031 -23.984375 29.671875 -21.453125 29.671875 -18.140625 Z M 29.671875 0 "/></g></g></g><g fill="#2e3793" fill-opacity="1"><g transform="translate(339.040062, 200.500793)"><g><path d="M 15.515625 -22.953125 C 13.898438 -22.953125 12.632812 -22.441406 11.71875 -21.421875 C 10.8125 -20.398438 10.289062 -18.953125 10.15625 -17.078125 L 20.8125 -17.078125 C 20.78125 -18.953125 20.289062 -20.398438 19.34375 -21.421875 C 18.394531 -22.441406 17.117188 -22.953125 15.515625 -22.953125 Z M 16.578125 0.5 C 12.097656 0.5 8.597656 -0.734375 6.078125 -3.203125 C 3.554688 -5.679688 2.296875 -9.1875 2.296875 -13.71875 C 2.296875 -18.382812 3.457031 -21.988281 5.78125 -24.53125 C 8.113281 -27.082031 11.335938 -28.359375 15.453125 -28.359375 C 19.390625 -28.359375 22.453125 -27.238281 24.640625 -25 C 26.835938 -22.757812 27.9375 -19.660156 27.9375 -15.703125 L 27.9375 -12.03125 L 9.984375 -12.03125 C 10.066406 -9.863281 10.703125 -8.175781 11.890625 -6.96875 C 13.085938 -5.757812 14.765625 -5.15625 16.921875 -5.15625 C 18.597656 -5.15625 20.179688 -5.328125 21.671875 -5.671875 C 23.171875 -6.023438 24.734375 -6.582031 26.359375 -7.34375 L 26.359375 -1.46875 C 25.035156 -0.800781 23.617188 -0.304688 22.109375 0.015625 C 20.597656 0.335938 18.753906 0.5 16.578125 0.5 Z M 16.578125 0.5 "/></g></g></g><g clip-path="url(#e52f60f5d6)"><path fill="#0094d9" d="M 99.269531 176.035156 C 99.265625 175.921875 99.261719 175.8125 99.257812 175.703125 C 99.257812 175.652344 99.253906 175.601562 99.253906 175.550781 C 99.246094 175.449219 99.242188 175.355469 99.238281 175.261719 C 99.234375 175.1875 99.226562 175.117188 99.222656 175.042969 C 99.21875 174.953125 99.210938 174.867188 99.203125 174.78125 C 99.199219 174.71875 99.191406 174.65625 99.1875 174.59375 C 99.1875 174.585938 99.1875 174.582031 99.183594 174.570312 C 99.167969 174.371094 99.148438 174.171875 99.125 173.976562 C 99.101562 173.78125 99.070312 173.589844 99.042969 173.398438 C 99.042969 173.375 99.039062 173.347656 99.03125 173.324219 C 99.003906 173.140625 98.972656 172.964844 98.941406 172.785156 C 98.90625 172.59375 98.867188 172.398438 98.824219 172.203125 C 98.78125 172.011719 98.738281 171.816406 98.691406 171.628906 C 98.621094 171.339844 98.542969 171.054688 98.457031 170.773438 C 98.445312 170.726562 98.429688 170.679688 98.414062 170.632812 C 98.402344 170.585938 98.386719 170.539062 98.375 170.492188 C 98.34375 170.40625 98.320312 170.316406 98.285156 170.230469 C 98.261719 170.140625 98.230469 170.054688 98.199219 169.964844 C 98.1875 169.9375 98.179688 169.90625 98.167969 169.878906 C 98.164062 169.859375 98.15625 169.839844 98.148438 169.824219 C 98.097656 169.675781 98.046875 169.53125 97.992188 169.386719 C 97.96875 169.324219 97.941406 169.261719 97.917969 169.199219 C 97.871094 169.078125 97.824219 168.960938 97.773438 168.847656 C 97.703125 168.664062 97.625 168.492188 97.546875 168.3125 C 97.46875 168.136719 97.386719 167.960938 97.300781 167.789062 C 97.214844 167.613281 97.128906 167.441406 97.042969 167.273438 C 96.980469 167.15625 96.921875 167.035156 96.855469 166.917969 C 96.820312 166.847656 96.78125 166.78125 96.742188 166.714844 C 96.671875 166.589844 96.597656 166.464844 96.527344 166.34375 C 96.492188 166.28125 96.460938 166.226562 96.425781 166.171875 C 96.425781 166.167969 96.425781 166.167969 96.421875 166.164062 C 96.421875 166.164062 96.421875 166.160156 96.417969 166.160156 C 96.417969 166.160156 96.417969 166.15625 96.414062 166.15625 C 96.308594 165.976562 96.195312 165.796875 96.082031 165.625 C 96.078125 165.617188 96.074219 165.609375 96.066406 165.601562 C 95.953125 165.429688 95.84375 165.261719 95.722656 165.09375 C 95.722656 165.085938 95.714844 165.082031 95.710938 165.074219 C 95.601562 164.914062 95.484375 164.753906 95.367188 164.597656 C 95.347656 164.566406 95.324219 164.539062 95.296875 164.507812 C 95.191406 164.367188 95.089844 164.230469 94.976562 164.09375 C 94.960938 164.070312 94.9375 164.046875 94.921875 164.023438 C 94.824219 163.898438 94.722656 163.773438 94.617188 163.652344 C 94.457031 163.457031 94.285156 163.265625 94.121094 163.082031 C 94.003906 162.957031 93.890625 162.835938 93.773438 162.714844 C 93.746094 162.6875 93.71875 162.65625 93.6875 162.628906 C 93.6875 162.625 93.679688 162.621094 93.679688 162.617188 C 93.574219 162.507812 93.472656 162.40625 93.367188 162.300781 L 93.109375 162.179688 L 92.585938 161.933594 L 92.441406 161.867188 L 91.691406 161.519531 L 91.167969 161.277344 L 90.84375 161.125 L 90.597656 161.011719 C 90.457031 160.957031 90.304688 160.925781 90.148438 160.917969 L 91.800781 160.917969 C 91.78125 160.90625 91.769531 160.890625 91.753906 160.878906 C 91.628906 160.78125 91.503906 160.683594 91.375 160.589844 C 91.285156 160.519531 91.195312 160.457031 91.101562 160.390625 C 90.980469 160.304688 90.863281 160.214844 90.738281 160.132812 C 90.542969 159.996094 90.347656 159.867188 90.148438 159.742188 C 90.097656 159.707031 90.042969 159.675781 89.996094 159.644531 C 89.867188 159.5625 89.742188 159.484375 89.613281 159.40625 C 89.488281 159.335938 89.363281 159.261719 89.238281 159.191406 C 89.164062 159.148438 89.097656 159.113281 89.027344 159.070312 C 88.867188 158.988281 88.707031 158.902344 88.546875 158.820312 C 88.53125 158.808594 88.515625 158.800781 88.5 158.796875 C 88.425781 158.757812 88.351562 158.71875 88.277344 158.683594 C 88.1875 158.640625 88.097656 158.59375 88.003906 158.550781 C 87.96875 158.535156 87.9375 158.515625 87.90625 158.507812 C 87.792969 158.453125 87.679688 158.398438 87.566406 158.351562 C 87.558594 158.351562 87.554688 158.347656 87.546875 158.34375 C 87.453125 158.300781 87.359375 158.257812 87.265625 158.21875 C 87.105469 158.148438 86.941406 158.085938 86.777344 158.019531 C 86.609375 157.953125 86.433594 157.886719 86.261719 157.828125 C 86.199219 157.804688 86.136719 157.78125 86.074219 157.761719 C 85.992188 157.730469 85.910156 157.699219 85.828125 157.671875 C 85.746094 157.644531 85.664062 157.617188 85.582031 157.59375 C 85.34375 157.515625 85.109375 157.445312 84.871094 157.382812 C 84.78125 157.355469 84.691406 157.332031 84.601562 157.304688 C 84.511719 157.285156 84.421875 157.261719 84.332031 157.242188 C 84.316406 157.238281 84.300781 157.230469 84.285156 157.226562 C 84.269531 157.226562 84.253906 157.222656 84.242188 157.21875 C 84.203125 157.210938 84.164062 157.199219 84.128906 157.191406 C 84.078125 157.179688 84.03125 157.167969 83.984375 157.15625 C 83.902344 157.136719 83.816406 157.117188 83.730469 157.105469 C 83.707031 157.097656 83.679688 157.089844 83.65625 157.085938 C 83.632812 157.078125 83.605469 157.074219 83.578125 157.070312 L 83.332031 157.023438 C 83.21875 157 83.101562 156.976562 82.988281 156.957031 C 82.8125 156.929688 82.636719 156.902344 82.464844 156.875 C 82.425781 156.871094 82.390625 156.863281 82.355469 156.859375 C 82.320312 156.855469 82.285156 156.847656 82.246094 156.84375 C 81.972656 156.804688 81.691406 156.773438 81.414062 156.75 C 81.320312 156.738281 81.226562 156.734375 81.132812 156.726562 C 81.121094 156.726562 81.105469 156.722656 81.09375 156.722656 C 81.011719 156.714844 80.929688 156.710938 80.851562 156.707031 C 80.679688 156.695312 80.507812 156.6875 80.335938 156.679688 L 80.289062 156.679688 C 80.195312 156.675781 80.101562 156.675781 80.007812 156.675781 C 79.917969 156.671875 79.832031 156.671875 79.742188 156.671875 C 79.734375 156.667969 79.722656 156.667969 79.714844 156.671875 C 79.683594 156.667969 79.65625 156.667969 79.621094 156.667969 C 79.597656 156.667969 79.578125 156.667969 79.550781 156.671875 L 79.550781 156.667969 L 79.503906 156.667969 C 79.414062 156.667969 79.324219 156.667969 79.238281 156.671875 C 79.144531 156.671875 79.050781 156.671875 78.957031 156.679688 L 78.910156 156.679688 C 78.734375 156.683594 78.566406 156.691406 78.390625 156.707031 C 78.3125 156.707031 78.230469 156.714844 78.152344 156.71875 C 78.136719 156.71875 78.121094 156.726562 78.109375 156.726562 C 78.015625 156.730469 77.921875 156.738281 77.832031 156.746094 C 77.636719 156.765625 77.445312 156.785156 77.253906 156.808594 C 77.167969 156.816406 77.082031 156.828125 76.996094 156.84375 C 76.960938 156.847656 76.925781 156.851562 76.886719 156.855469 C 76.851562 156.859375 76.816406 156.867188 76.78125 156.875 C 76.605469 156.894531 76.429688 156.921875 76.253906 156.957031 C 76.15625 156.972656 76.054688 156.988281 75.957031 157.007812 C 75.859375 157.027344 75.761719 157.050781 75.664062 157.070312 C 75.636719 157.074219 75.613281 157.078125 75.589844 157.082031 C 75.5625 157.089844 75.535156 157.097656 75.511719 157.101562 C 75.425781 157.117188 75.34375 157.136719 75.257812 157.15625 C 75.210938 157.167969 75.164062 157.175781 75.117188 157.1875 C 75.078125 157.199219 75.042969 157.207031 75.003906 157.21875 C 74.988281 157.222656 74.972656 157.222656 74.957031 157.226562 C 74.945312 157.230469 74.925781 157.234375 74.910156 157.238281 C 74.824219 157.257812 74.734375 157.28125 74.644531 157.304688 C 74.554688 157.332031 74.464844 157.355469 74.375 157.382812 C 74.140625 157.445312 73.902344 157.515625 73.667969 157.589844 C 73.582031 157.617188 73.5 157.644531 73.417969 157.671875 C 73.335938 157.699219 73.257812 157.726562 73.175781 157.757812 C 73.109375 157.777344 73.050781 157.796875 72.984375 157.824219 C 72.8125 157.882812 72.640625 157.949219 72.472656 158.015625 C 72.304688 158.082031 72.144531 158.148438 71.980469 158.21875 C 71.886719 158.257812 71.792969 158.296875 71.699219 158.34375 C 71.578125 158.390625 71.460938 158.445312 71.339844 158.503906 C 71.304688 158.515625 71.273438 158.53125 71.246094 158.550781 C 71.199219 158.570312 71.152344 158.59375 71.105469 158.613281 C 70.96875 158.679688 70.835938 158.746094 70.703125 158.816406 C 70.539062 158.898438 70.378906 158.980469 70.222656 159.070312 C 70.148438 159.109375 70.082031 159.148438 70.011719 159.191406 C 69.882812 159.261719 69.761719 159.335938 69.636719 159.40625 C 69.539062 159.464844 69.441406 159.523438 69.347656 159.578125 C 69.0625 159.757812 68.785156 159.941406 68.507812 160.128906 C 68.386719 160.214844 68.265625 160.300781 68.144531 160.386719 C 68.054688 160.453125 67.964844 160.519531 67.875 160.589844 C 67.746094 160.679688 67.621094 160.78125 67.5 160.878906 C 67.417969 160.945312 67.328125 161.007812 67.25 161.074219 C 67.191406 161.117188 67.136719 161.167969 67.078125 161.21875 C 66.996094 161.289062 66.914062 161.355469 66.835938 161.421875 C 66.71875 161.519531 66.605469 161.625 66.492188 161.726562 C 66.347656 161.855469 66.210938 161.988281 66.070312 162.117188 C 65.984375 162.199219 65.898438 162.28125 65.820312 162.363281 C 65.753906 162.429688 65.6875 162.5 65.621094 162.566406 C 65.601562 162.582031 65.585938 162.601562 65.570312 162.617188 C 65.53125 162.65625 65.496094 162.691406 65.460938 162.734375 C 65.421875 162.769531 65.386719 162.808594 65.347656 162.847656 C 65.277344 162.925781 65.203125 163.003906 65.132812 163.082031 C 64.960938 163.265625 64.792969 163.457031 64.636719 163.652344 C 64.609375 163.679688 64.582031 163.710938 64.558594 163.742188 C 64.503906 163.804688 64.453125 163.863281 64.402344 163.929688 C 64.378906 163.960938 64.355469 163.992188 64.328125 164.023438 C 64.3125 164.042969 64.292969 164.070312 64.273438 164.09375 C 64.164062 164.230469 64.058594 164.367188 63.953125 164.503906 L 63.953125 164.507812 C 63.929688 164.539062 63.902344 164.566406 63.882812 164.597656 C 63.777344 164.738281 63.675781 164.878906 63.574219 165.023438 C 63.5625 165.042969 63.550781 165.058594 63.539062 165.074219 C 63.535156 165.082031 63.527344 165.085938 63.527344 165.09375 C 63.40625 165.261719 63.292969 165.429688 63.183594 165.601562 C 63.175781 165.609375 63.171875 165.617188 63.167969 165.621094 C 63.050781 165.796875 62.941406 165.980469 62.832031 166.160156 C 62.828125 166.164062 62.828125 166.164062 62.824219 166.171875 C 62.714844 166.351562 62.609375 166.53125 62.507812 166.714844 C 62.402344 166.898438 62.300781 167.082031 62.207031 167.269531 C 62.164062 167.355469 62.121094 167.445312 62.078125 167.527344 C 62.054688 167.570312 62.03125 167.617188 62.011719 167.65625 C 61.988281 167.703125 61.96875 167.746094 61.949219 167.785156 C 61.90625 167.875 61.867188 167.960938 61.824219 168.050781 C 61.785156 168.136719 61.746094 168.226562 61.703125 168.3125 C 61.664062 168.402344 61.625 168.492188 61.585938 168.578125 C 61.546875 168.667969 61.511719 168.757812 61.476562 168.847656 C 61.4375 168.9375 61.398438 169.027344 61.363281 169.117188 C 61.328125 169.203125 61.292969 169.296875 61.261719 169.386719 C 61.195312 169.550781 61.140625 169.714844 61.082031 169.878906 C 61.070312 169.90625 61.0625 169.9375 61.050781 169.964844 C 60.992188 170.144531 60.933594 170.316406 60.878906 170.492188 C 60.761719 170.867188 60.65625 171.246094 60.5625 171.628906 C 60.511719 171.820312 60.46875 172.011719 60.425781 172.207031 C 60.386719 172.398438 60.347656 172.59375 60.308594 172.785156 C 60.277344 172.96875 60.246094 173.144531 60.21875 173.324219 C 60.214844 173.347656 60.207031 173.371094 60.207031 173.398438 C 60.179688 173.589844 60.152344 173.78125 60.128906 173.976562 C 60.101562 174.171875 60.082031 174.375 60.0625 174.574219 C 60.046875 174.734375 60.039062 174.886719 60.027344 175.046875 C 60.019531 175.117188 60.015625 175.1875 60.011719 175.261719 C 60 175.410156 59.996094 175.554688 59.992188 175.703125 C 59.988281 175.8125 59.984375 175.925781 59.980469 176.035156 C 59.980469 176.160156 59.980469 176.285156 59.980469 176.40625 C 59.980469 176.570312 59.980469 176.730469 59.984375 176.886719 C 59.988281 177.003906 59.992188 177.121094 59.996094 177.234375 C 60 177.335938 60.007812 177.445312 60.011719 177.546875 C 60.015625 177.625 60.023438 177.703125 60.027344 177.777344 L 60.027344 177.789062 C 60.039062 177.976562 60.054688 178.164062 60.074219 178.351562 C 60.089844 178.507812 60.105469 178.667969 60.125 178.824219 C 60.128906 178.84375 60.128906 178.863281 60.132812 178.878906 C 60.164062 179.128906 60.195312 179.375 60.242188 179.621094 C 60.273438 179.824219 60.308594 180.027344 60.347656 180.230469 C 60.351562 180.242188 60.355469 180.257812 60.355469 180.269531 C 60.394531 180.46875 60.4375 180.664062 60.484375 180.863281 C 60.484375 180.878906 60.488281 180.890625 60.492188 180.902344 C 60.535156 181.09375 60.585938 181.28125 60.632812 181.46875 C 60.6875 181.671875 60.742188 181.871094 60.800781 182.070312 C 60.855469 182.253906 60.914062 182.429688 60.96875 182.605469 C 60.972656 182.617188 60.976562 182.628906 60.980469 182.640625 C 61.175781 182.683594 61.371094 182.722656 61.574219 182.753906 C 61.832031 182.792969 62.097656 182.828125 62.359375 182.847656 C 62.636719 182.871094 62.914062 182.882812 63.195312 182.882812 C 64.410156 182.882812 65.578125 182.671875 66.660156 182.28125 C 66.589844 182.125 66.523438 181.96875 66.460938 181.816406 C 65.769531 180.148438 65.394531 178.316406 65.394531 176.398438 C 65.394531 172.648438 66.839844 169.238281 69.199219 166.695312 C 69.625 166.238281 70.078125 165.808594 70.5625 165.410156 C 70.917969 165.117188 71.289062 164.839844 71.671875 164.582031 C 72.984375 163.695312 74.449219 163.023438 76.023438 162.621094 C 76.246094 162.5625 76.476562 162.507812 76.707031 162.460938 C 76.820312 162.4375 76.933594 162.414062 77.046875 162.394531 C 77.054688 162.394531 77.0625 162.394531 77.070312 162.390625 C 77.109375 162.382812 77.152344 162.375 77.191406 162.371094 C 77.257812 162.359375 77.320312 162.351562 77.386719 162.339844 C 77.394531 162.339844 77.398438 162.335938 77.40625 162.335938 C 77.519531 162.320312 77.636719 162.300781 77.753906 162.285156 C 77.757812 162.285156 77.765625 162.285156 77.769531 162.285156 C 77.882812 162.269531 77.996094 162.257812 78.109375 162.246094 C 78.210938 162.234375 78.3125 162.226562 78.414062 162.21875 C 78.46875 162.214844 78.519531 162.210938 78.574219 162.207031 C 78.632812 162.203125 78.691406 162.199219 78.75 162.195312 C 78.785156 162.195312 78.824219 162.191406 78.863281 162.191406 C 78.949219 162.183594 79.035156 162.183594 79.121094 162.179688 C 79.265625 162.175781 79.410156 162.171875 79.554688 162.171875 C 79.675781 162.171875 79.796875 162.175781 79.917969 162.179688 C 80.035156 162.179688 80.148438 162.183594 80.261719 162.191406 C 80.273438 162.191406 80.285156 162.191406 80.292969 162.195312 C 80.390625 162.195312 80.488281 162.203125 80.585938 162.210938 C 80.617188 162.210938 80.652344 162.214844 80.6875 162.21875 C 80.792969 162.226562 80.894531 162.234375 81 162.246094 C 81.109375 162.257812 81.222656 162.269531 81.332031 162.285156 C 81.347656 162.285156 81.359375 162.289062 81.371094 162.289062 C 81.484375 162.304688 81.59375 162.320312 81.707031 162.335938 C 82.054688 162.390625 82.402344 162.457031 82.746094 162.539062 C 83.085938 162.613281 83.425781 162.707031 83.753906 162.8125 C 85.011719 163.203125 86.195312 163.765625 87.273438 164.472656 C 87.269531 164.472656 87.265625 164.472656 87.265625 164.476562 C 90.085938 166.324219 92.207031 169.160156 93.144531 172.492188 C 94.507812 172.171875 95.808594 171.695312 97.035156 171.085938 C 96.785156 171.238281 96.539062 171.386719 96.289062 171.535156 C 96.25 171.5625 96.203125 171.589844 96.164062 171.617188 C 96.132812 171.632812 96.105469 171.648438 96.074219 171.667969 C 96.066406 171.671875 96.058594 171.675781 96.050781 171.683594 C 95.964844 171.734375 95.878906 171.785156 95.792969 171.835938 C 95.511719 172.003906 95.230469 172.171875 94.949219 172.335938 C 94.863281 172.386719 94.78125 172.433594 94.703125 172.480469 C 94.449219 172.628906 94.199219 172.773438 93.949219 172.917969 C 93.753906 173.03125 93.558594 173.144531 93.363281 173.253906 C 93.511719 173.910156 93.613281 174.585938 93.667969 175.273438 C 93.695312 175.644531 93.710938 176.023438 93.710938 176.398438 C 93.710938 177.164062 93.652344 177.910156 93.539062 178.640625 C 93.519531 178.746094 93.503906 178.847656 93.484375 178.953125 C 93.53125 178.925781 93.578125 178.902344 93.625 178.878906 C 93.71875 178.828125 93.808594 178.773438 93.902344 178.722656 C 93.945312 178.699219 93.996094 178.675781 94.039062 178.652344 C 94.25 178.535156 94.457031 178.421875 94.660156 178.304688 C 94.703125 178.28125 94.75 178.257812 94.789062 178.230469 C 94.863281 178.195312 94.9375 178.152344 95.007812 178.109375 C 95.273438 177.960938 95.542969 177.804688 95.808594 177.652344 C 95.820312 177.648438 95.828125 177.640625 95.839844 177.636719 C 95.890625 177.601562 95.945312 177.574219 96 177.542969 C 96.234375 177.402344 96.464844 177.265625 96.695312 177.125 C 96.765625 177.085938 96.832031 177.046875 96.902344 177.007812 C 96.960938 176.972656 97.019531 176.933594 97.078125 176.902344 C 97.191406 176.832031 97.308594 176.761719 97.421875 176.691406 C 96.140625 178.058594 94.710938 179.289062 93.15625 180.355469 C 93.039062 180.769531 92.898438 181.179688 92.746094 181.574219 C 91.800781 184 90.214844 186.101562 88.195312 187.664062 C 85.804688 189.519531 82.804688 190.625 79.550781 190.625 C 78.488281 190.625 77.453125 190.503906 76.457031 190.28125 C 76.492188 190.265625 76.523438 190.253906 76.558594 190.238281 C 79.242188 189.125 81.714844 187.601562 83.898438 185.75 C 83.867188 185.761719 83.835938 185.773438 83.804688 185.789062 C 83.636719 185.855469 83.472656 185.921875 83.304688 185.988281 C 83.292969 185.996094 83.277344 186 83.261719 186.007812 C 83.203125 186.03125 83.148438 186.050781 83.09375 186.074219 C 82.9375 186.136719 82.78125 186.199219 82.628906 186.253906 C 82.605469 186.265625 82.582031 186.277344 82.554688 186.285156 C 82.515625 186.304688 82.472656 186.320312 82.433594 186.335938 C 82.234375 186.414062 82.039062 186.484375 81.839844 186.5625 C 81.824219 186.566406 81.804688 186.578125 81.789062 186.578125 C 81.785156 186.585938 81.777344 186.585938 81.765625 186.589844 C 81.574219 186.660156 81.386719 186.734375 81.195312 186.804688 C 81.179688 186.808594 81.160156 186.816406 81.144531 186.820312 C 81.082031 186.84375 81.015625 186.867188 80.949219 186.890625 C 80.867188 186.925781 80.785156 186.953125 80.703125 186.984375 C 80.632812 187.007812 80.5625 187.035156 80.492188 187.0625 C 80.425781 187.085938 80.355469 187.109375 80.28125 187.132812 C 80.117188 187.191406 79.953125 187.25 79.785156 187.308594 C 79.738281 187.324219 79.691406 187.34375 79.644531 187.359375 C 79.457031 187.429688 79.261719 187.492188 79.070312 187.5625 C 79.050781 187.566406 79.035156 187.574219 79.015625 187.578125 C 78.964844 187.597656 78.910156 187.609375 78.863281 187.632812 C 78.699219 187.683594 78.539062 187.738281 78.386719 187.789062 C 78.3125 187.8125 78.246094 187.835938 78.179688 187.859375 L 77.726562 188.003906 C 77.667969 188.023438 77.605469 188.042969 77.539062 188.066406 L 77.417969 188.101562 C 77.25 188.15625 77.085938 188.210938 76.921875 188.257812 C 76.914062 188.261719 76.90625 188.265625 76.898438 188.265625 C 76.703125 188.328125 76.503906 188.386719 76.308594 188.445312 C 76.246094 188.464844 76.183594 188.484375 76.117188 188.503906 C 75.972656 188.542969 75.828125 188.589844 75.6875 188.628906 C 75.621094 188.648438 75.550781 188.667969 75.484375 188.6875 C 75.324219 188.730469 75.171875 188.777344 75.011719 188.820312 C 74.96875 188.832031 74.933594 188.84375 74.886719 188.855469 C 74.886719 188.859375 74.882812 188.859375 74.878906 188.859375 C 74.875 188.863281 74.875 188.863281 74.875 188.859375 C 74.679688 188.917969 74.476562 188.972656 74.28125 189.023438 C 74.230469 189.039062 74.183594 189.046875 74.132812 189.058594 C 73.984375 189.101562 73.835938 189.140625 73.683594 189.179688 C 73.636719 189.191406 73.59375 189.203125 73.550781 189.214844 C 73.53125 189.21875 73.507812 189.222656 73.488281 189.230469 C 73.476562 189.234375 73.464844 189.234375 73.453125 189.238281 C 73.320312 189.273438 73.191406 189.304688 73.066406 189.335938 C 73.007812 189.351562 72.953125 189.367188 72.890625 189.382812 C 72.835938 189.398438 72.78125 189.410156 72.726562 189.425781 C 72.585938 189.457031 72.449219 189.488281 72.308594 189.519531 C 72.308594 189.523438 72.304688 189.523438 72.304688 189.527344 C 72.292969 189.527344 72.28125 189.527344 72.273438 189.527344 C 72.09375 189.574219 71.914062 189.613281 71.734375 189.65625 C 71.675781 189.667969 71.613281 189.683594 71.554688 189.695312 C 71.46875 189.714844 71.378906 189.734375 71.289062 189.753906 C 71.265625 189.757812 71.242188 189.765625 71.21875 189.769531 C 71.195312 189.773438 71.171875 189.777344 71.148438 189.78125 C 71.089844 189.796875 71.027344 189.808594 70.964844 189.820312 C 70.8125 189.855469 70.664062 189.882812 70.515625 189.914062 C 70.476562 189.921875 70.4375 189.929688 70.398438 189.941406 C 70.214844 189.976562 70.03125 190.011719 69.84375 190.046875 C 69.796875 190.054688 69.753906 190.0625 69.707031 190.074219 C 69.570312 190.101562 69.425781 190.128906 69.289062 190.152344 C 69.234375 190.164062 69.171875 190.171875 69.113281 190.179688 C 68.980469 190.207031 68.847656 190.230469 68.71875 190.25 L 68.648438 190.261719 L 68.566406 190.277344 C 68.386719 190.304688 68.207031 190.335938 68.027344 190.363281 C 68.015625 190.363281 68.007812 190.363281 68 190.367188 C 67.832031 190.390625 67.664062 190.417969 67.5 190.441406 C 67.445312 190.445312 67.394531 190.453125 67.34375 190.460938 C 67.273438 190.472656 67.207031 190.480469 67.140625 190.488281 C 67.082031 190.496094 67.023438 190.503906 66.964844 190.511719 C 66.914062 190.515625 66.859375 190.523438 66.808594 190.53125 C 66.664062 190.550781 66.527344 190.566406 66.386719 190.582031 C 66.355469 190.582031 66.324219 190.589844 66.292969 190.59375 C 66.238281 190.597656 66.183594 190.605469 66.125 190.613281 L 67.207031 191.964844 L 67.246094 192.011719 L 67.257812 192.027344 L 67.480469 192.308594 L 68.230469 193.246094 L 68.890625 194.074219 L 69.398438 194.703125 L 69.398438 194.707031 L 70.898438 196.585938 L 70.90625 196.597656 L 72.164062 198.167969 L 72.488281 198.574219 L 75.144531 201.898438 L 75.378906 202.195312 L 75.382812 202.203125 L 75.808594 202.738281 L 75.960938 202.921875 L 76.136719 203.144531 L 77.773438 205.1875 L 77.96875 205.4375 C 78.378906 205.882812 78.96875 206.160156 79.621094 206.160156 C 80.273438 206.160156 80.859375 205.882812 81.273438 205.441406 L 81.476562 205.183594 L 83.105469 203.144531 L 83.285156 202.921875 L 83.433594 202.738281 L 83.859375 202.203125 L 83.683594 201.980469 L 83.859375 202.203125 L 83.863281 202.207031 L 84.367188 201.570312 L 85.097656 200.65625 L 86.53125 198.863281 L 87.558594 197.570312 L 88.339844 196.597656 L 89.847656 194.707031 L 90.011719 194.496094 L 91.28125 192.910156 L 92 192.015625 L 92.023438 191.984375 C 92.027344 191.976562 92.03125 191.972656 92.035156 191.964844 L 92.144531 191.828125 L 92.308594 191.621094 L 92.808594 190.992188 L 93.78125 189.777344 L 96.5 186.378906 L 96.761719 186.050781 L 96.769531 186.042969 C 96.972656 185.671875 97.171875 185.292969 97.351562 184.902344 C 97.402344 184.796875 97.457031 184.691406 97.503906 184.582031 C 97.558594 184.464844 97.613281 184.34375 97.65625 184.226562 C 97.695312 184.144531 97.734375 184.058594 97.765625 183.972656 C 97.824219 183.839844 97.878906 183.707031 97.925781 183.566406 C 97.941406 183.535156 97.957031 183.5 97.96875 183.46875 C 97.980469 183.441406 97.988281 183.421875 97.996094 183.398438 C 98 183.386719 98.007812 183.375 98.007812 183.363281 C 98.023438 183.320312 98.039062 183.28125 98.054688 183.242188 C 98.066406 183.203125 98.082031 183.160156 98.09375 183.121094 C 98.160156 182.949219 98.21875 182.78125 98.273438 182.605469 C 98.332031 182.429688 98.390625 182.25 98.441406 182.070312 C 98.5 181.871094 98.558594 181.667969 98.609375 181.46875 C 98.660156 181.28125 98.707031 181.089844 98.753906 180.902344 C 98.757812 180.886719 98.757812 180.871094 98.761719 180.859375 C 98.808594 180.660156 98.851562 180.464844 98.886719 180.269531 C 98.890625 180.253906 98.890625 180.242188 98.894531 180.226562 C 98.933594 180.023438 98.972656 179.824219 99.003906 179.617188 C 99.019531 179.542969 99.03125 179.464844 99.042969 179.386719 C 99.050781 179.339844 99.058594 179.296875 99.0625 179.25 C 99.078125 179.128906 99.09375 179.003906 99.109375 178.878906 C 99.117188 178.832031 99.121094 178.785156 99.128906 178.738281 C 99.144531 178.605469 99.15625 178.476562 99.171875 178.347656 C 99.1875 178.164062 99.203125 177.972656 99.214844 177.785156 C 99.21875 177.707031 99.226562 177.628906 99.230469 177.546875 C 99.238281 177.441406 99.242188 177.335938 99.246094 177.230469 C 99.25 177.117188 99.253906 177 99.257812 176.882812 C 99.261719 176.726562 99.261719 176.566406 99.261719 176.40625 C 99.269531 176.28125 99.269531 176.15625 99.269531 176.035156 Z M 99.269531 176.035156 " fill-opacity="1" fill-rule="evenodd"/></g><g clip-path="url(#79aff460d3)"><path fill="#2c3491" d="M 113.503906 164.8125 C 113.351562 164.679688 113.132812 164.609375 112.835938 164.589844 C 112.238281 164.546875 111.339844 164.71875 110.238281 165.066406 C 110.09375 165.113281 109.941406 165.164062 109.785156 165.21875 C 109.726562 165.234375 109.667969 165.257812 109.609375 165.277344 C 109.558594 165.292969 109.507812 165.3125 109.46875 165.332031 C 109.378906 165.363281 109.289062 165.390625 109.203125 165.425781 C 108.828125 165.558594 108.441406 165.707031 108.039062 165.871094 C 107.632812 166.03125 107.214844 166.207031 106.78125 166.398438 C 106.710938 166.429688 106.640625 166.460938 106.570312 166.492188 C 105.886719 166.796875 105.167969 167.128906 104.429688 167.480469 L 104.1875 167.371094 L 103.871094 167.222656 L 103.351562 166.984375 L 103.1875 166.910156 L 103.125 166.878906 L 102.960938 166.800781 L 102.867188 166.757812 L 102.214844 166.449219 L 102.042969 166.371094 L 101.871094 166.289062 L 101.296875 166.019531 L 100.8125 165.789062 L 100.707031 165.742188 L 100.601562 165.691406 L 100.140625 165.476562 L 99.40625 165.128906 L 100.082031 164.75 L 100.140625 164.71875 L 100.195312 164.683594 L 100.652344 164.429688 L 99.441406 162.246094 L 97.511719 163.328125 L 96.625 163.828125 L 94.566406 162.863281 L 94.125 162.652344 L 93.761719 162.484375 L 93.367188 162.300781 L 93.367188 162.296875 L 93.109375 162.179688 L 92.582031 161.933594 L 92.4375 161.863281 L 91.691406 161.519531 L 91.167969 161.277344 L 90.84375 161.125 L 90.597656 161.011719 C 90.457031 160.957031 90.300781 160.925781 90.148438 160.917969 L 89.960938 160.917969 C 89.738281 160.929688 89.515625 160.992188 89.304688 161.105469 C 89.09375 161.226562 88.917969 161.390625 88.785156 161.582031 C 88.695312 161.710938 88.628906 161.851562 88.582031 161.996094 C 88.570312 162.03125 88.5625 162.058594 88.554688 162.089844 C 88.460938 162.464844 88.5 162.875 88.699219 163.234375 C 88.734375 163.304688 88.78125 163.367188 88.828125 163.425781 C 88.832031 163.433594 88.839844 163.4375 88.84375 163.441406 C 88.902344 163.492188 88.960938 163.542969 89.023438 163.589844 C 89.023438 163.589844 89.023438 163.589844 89.027344 163.59375 C 89.097656 163.652344 89.171875 163.714844 89.246094 163.777344 C 89.265625 163.792969 89.285156 163.808594 89.304688 163.824219 C 89.324219 163.84375 89.339844 163.855469 89.359375 163.871094 C 89.402344 163.910156 89.449219 163.941406 89.488281 163.980469 C 89.550781 164.027344 89.613281 164.074219 89.671875 164.128906 L 89.957031 164.375 L 90.097656 164.5 L 91 165.289062 L 92.984375 167.015625 C 93.050781 167.074219 93.117188 167.136719 93.183594 167.199219 C 93.332031 167.332031 93.476562 167.46875 93.625 167.609375 C 93.722656 167.699219 93.820312 167.789062 93.917969 167.882812 C 93.984375 167.941406 94.050781 168.007812 94.117188 168.070312 C 94.652344 168.578125 95.179688 169.089844 95.699219 169.601562 C 95.980469 169.878906 96.257812 170.15625 96.53125 170.4375 C 96.636719 170.546875 96.746094 170.652344 96.851562 170.761719 C 96.886719 170.804688 96.925781 170.84375 96.964844 170.882812 C 96.96875 170.878906 96.972656 170.878906 96.976562 170.875 C 96.976562 170.882812 96.972656 170.882812 96.964844 170.882812 C 96.960938 170.890625 96.953125 170.898438 96.941406 170.902344 L 96.980469 170.972656 L 97.035156 171.078125 C 96.785156 171.230469 96.539062 171.382812 96.285156 171.535156 C 96.246094 171.558594 96.199219 171.585938 96.160156 171.613281 C 96.128906 171.628906 96.101562 171.648438 96.074219 171.664062 C 96.066406 171.667969 96.054688 171.671875 96.046875 171.679688 C 95.960938 171.730469 95.878906 171.78125 95.792969 171.832031 C 95.507812 172 95.226562 172.167969 94.945312 172.332031 C 94.863281 172.382812 94.78125 172.429688 94.699219 172.480469 C 94.445312 172.625 94.195312 172.769531 93.949219 172.914062 C 93.75 173.027344 93.554688 173.140625 93.359375 173.25 C 93.351562 173.253906 93.34375 173.261719 93.335938 173.265625 C 93.222656 173.328125 93.109375 173.394531 92.996094 173.457031 C 92.738281 173.601562 92.480469 173.746094 92.230469 173.886719 C 92.191406 173.90625 92.15625 173.925781 92.125 173.945312 C 92.035156 173.996094 91.941406 174.046875 91.851562 174.097656 C 91.609375 174.230469 91.375 174.359375 91.140625 174.488281 C 90.808594 174.667969 90.484375 174.84375 90.171875 175.011719 C 90.097656 175.050781 90.027344 175.089844 89.957031 175.128906 C 87.984375 176.179688 86.441406 176.945312 85.746094 177.269531 C 85.703125 177.289062 85.660156 177.308594 85.621094 177.324219 C 85.09375 177.5625 83.800781 178.089844 82.046875 178.75 C 81.742188 178.867188 81.425781 178.984375 81.089844 179.105469 C 80.632812 179.277344 80.148438 179.453125 79.648438 179.628906 C 79.273438 179.765625 78.890625 179.898438 78.496094 180.035156 C 77.964844 180.222656 77.414062 180.40625 76.851562 180.59375 C 76.53125 180.703125 76.207031 180.808594 75.878906 180.917969 C 75.652344 180.992188 75.429688 181.0625 75.199219 181.136719 C 74.988281 181.203125 74.777344 181.269531 74.5625 181.335938 C 74.160156 181.464844 73.757812 181.589844 73.351562 181.710938 C 73.128906 181.777344 72.90625 181.84375 72.683594 181.910156 C 72.679688 181.914062 72.679688 181.914062 72.679688 181.910156 C 71.863281 182.148438 71.035156 182.378906 70.222656 182.597656 C 70.199219 182.605469 70.175781 182.609375 70.15625 182.613281 C 70.148438 182.617188 70.136719 182.621094 70.128906 182.625 C 69.703125 182.734375 69.277344 182.84375 68.855469 182.945312 C 68.457031 183.042969 68.058594 183.136719 67.667969 183.222656 C 67.523438 183.253906 67.378906 183.289062 67.234375 183.316406 C 67.21875 183.320312 67.199219 183.324219 67.183594 183.328125 C 66.414062 183.492188 65.667969 183.636719 64.949219 183.75 C 64.949219 183.75 64.945312 183.75 64.941406 183.75 C 63.933594 183.914062 62.988281 184.019531 62.125 184.058594 C 62.09375 184.058594 62.0625 184.058594 62.027344 184.058594 C 61.933594 184.0625 61.839844 184.066406 61.75 184.070312 C 61.671875 184.070312 61.59375 184.074219 61.515625 184.070312 C 61.320312 184.074219 61.128906 184.070312 60.945312 184.0625 C 59.617188 184.007812 58.597656 183.726562 58.039062 183.132812 L 58.027344 183.125 C 57.992188 183.085938 57.957031 183.042969 57.925781 183 C 57.84375 182.890625 57.769531 182.777344 57.714844 182.648438 C 57.710938 182.640625 57.707031 182.628906 57.703125 182.621094 C 57.664062 182.527344 57.625 182.433594 57.597656 182.339844 C 57.558594 182.214844 57.523438 182.09375 57.5 181.964844 C 57.453125 181.734375 57.433594 181.496094 57.433594 181.253906 C 57.433594 181.203125 57.433594 181.160156 57.4375 181.109375 L 57.4375 181.097656 C 57.4375 181.058594 57.441406 181.019531 57.445312 180.980469 C 57.464844 180.679688 57.515625 180.371094 57.601562 180.054688 C 57.65625 179.851562 57.722656 179.640625 57.804688 179.425781 C 57.992188 178.929688 58.246094 178.414062 58.566406 177.882812 C 58.789062 177.507812 59.046875 177.125 59.335938 176.738281 L 59.335938 176 C 59.308594 176.027344 59.28125 176.058594 59.253906 176.085938 C 59.015625 176.332031 58.785156 176.578125 58.566406 176.820312 C 57.046875 178.503906 55.984375 180.117188 55.460938 181.574219 C 55.398438 181.761719 55.339844 181.945312 55.289062 182.128906 C 55.265625 182.222656 55.242188 182.316406 55.222656 182.410156 C 55.164062 182.671875 55.128906 182.925781 55.109375 183.175781 L 55.109375 183.179688 C 55.074219 183.671875 55.117188 184.144531 55.246094 184.582031 C 55.292969 184.734375 55.34375 184.882812 55.410156 185.03125 C 55.460938 185.140625 55.515625 185.25 55.574219 185.355469 C 55.613281 185.417969 55.648438 185.476562 55.6875 185.535156 C 55.6875 185.539062 55.6875 185.539062 55.6875 185.539062 C 56.28125 186.433594 57.289062 187.089844 58.640625 187.523438 C 58.640625 187.527344 58.640625 187.527344 58.640625 187.527344 C 58.71875 187.550781 58.800781 187.574219 58.882812 187.601562 C 58.882812 187.597656 58.882812 187.597656 58.886719 187.601562 C 58.996094 187.636719 59.105469 187.660156 59.21875 187.691406 C 59.246094 187.699219 59.273438 187.703125 59.296875 187.710938 C 59.382812 187.734375 59.46875 187.753906 59.558594 187.773438 C 59.589844 187.78125 59.621094 187.789062 59.65625 187.792969 C 59.746094 187.816406 59.839844 187.832031 59.9375 187.851562 L 60.003906 187.867188 C 60.019531 187.867188 60.035156 187.871094 60.046875 187.871094 C 60.15625 187.890625 60.261719 187.910156 60.371094 187.929688 L 60.417969 187.933594 C 60.464844 187.941406 60.511719 187.949219 60.558594 187.957031 C 60.621094 187.964844 60.679688 187.972656 60.746094 187.980469 C 60.777344 187.984375 60.816406 187.992188 60.847656 187.996094 C 60.949219 188.007812 61.042969 188.019531 61.140625 188.03125 C 61.175781 188.03125 61.210938 188.035156 61.246094 188.042969 C 61.371094 188.054688 61.5 188.066406 61.625 188.078125 C 61.628906 188.082031 61.636719 188.082031 61.640625 188.082031 C 61.773438 188.089844 61.910156 188.097656 62.050781 188.105469 C 62.085938 188.105469 62.117188 188.109375 62.152344 188.109375 C 62.257812 188.117188 62.367188 188.121094 62.472656 188.128906 C 62.511719 188.132812 62.554688 188.132812 62.597656 188.132812 C 62.710938 188.132812 62.820312 188.140625 62.933594 188.140625 C 62.964844 188.144531 62.996094 188.140625 63.027344 188.144531 C 63.171875 188.148438 63.320312 188.148438 63.46875 188.148438 C 63.488281 188.148438 63.507812 188.148438 63.53125 188.148438 L 63.539062 188.148438 C 63.664062 188.148438 63.789062 188.148438 63.917969 188.144531 C 63.960938 188.140625 64.007812 188.140625 64.050781 188.140625 C 64.082031 188.140625 64.117188 188.140625 64.152344 188.140625 C 64.214844 188.136719 64.273438 188.136719 64.335938 188.132812 L 64.394531 188.132812 C 64.433594 188.128906 64.476562 188.128906 64.519531 188.128906 C 64.574219 188.128906 64.625 188.125 64.675781 188.121094 C 64.773438 188.117188 64.871094 188.113281 64.96875 188.105469 C 64.976562 188.105469 64.980469 188.105469 64.988281 188.105469 C 65.144531 188.097656 65.304688 188.085938 65.46875 188.078125 C 65.511719 188.074219 65.554688 188.074219 65.597656 188.066406 C 65.714844 188.054688 65.835938 188.050781 65.957031 188.039062 C 66.007812 188.035156 66.058594 188.03125 66.109375 188.027344 C 66.238281 188.015625 66.363281 188.003906 66.492188 187.992188 C 66.53125 187.988281 66.570312 187.988281 66.609375 187.980469 C 66.777344 187.960938 66.945312 187.945312 67.109375 187.925781 C 67.144531 187.925781 67.171875 187.917969 67.203125 187.914062 C 67.289062 187.90625 67.371094 187.898438 67.453125 187.886719 C 67.457031 187.886719 67.457031 187.886719 67.460938 187.886719 L 67.625 187.867188 C 67.675781 187.859375 67.730469 187.851562 67.785156 187.84375 C 67.839844 187.835938 67.898438 187.828125 67.957031 187.820312 C 68.027344 187.8125 68.09375 187.804688 68.160156 187.792969 C 68.214844 187.785156 68.265625 187.777344 68.316406 187.773438 C 68.480469 187.75 68.648438 187.722656 68.816406 187.699219 C 68.828125 187.699219 68.835938 187.695312 68.84375 187.695312 C 69.023438 187.667969 69.203125 187.640625 69.382812 187.609375 L 69.464844 187.59375 L 69.535156 187.582031 C 69.667969 187.5625 69.800781 187.539062 69.929688 187.511719 C 69.988281 187.503906 70.050781 187.492188 70.109375 187.484375 C 70.246094 187.460938 70.386719 187.433594 70.523438 187.40625 C 70.539062 187.402344 70.558594 187.398438 70.574219 187.394531 C 70.601562 187.390625 70.628906 187.386719 70.652344 187.382812 C 70.65625 187.382812 70.660156 187.378906 70.660156 187.378906 C 70.847656 187.34375 71.03125 187.308594 71.21875 187.269531 C 71.257812 187.265625 71.296875 187.253906 71.332031 187.246094 C 71.484375 187.214844 71.632812 187.183594 71.78125 187.152344 C 71.84375 187.140625 71.90625 187.125 71.964844 187.113281 C 71.988281 187.109375 72.011719 187.105469 72.035156 187.097656 C 72.058594 187.09375 72.082031 187.089844 72.105469 187.082031 C 72.195312 187.0625 72.285156 187.042969 72.375 187.023438 C 72.433594 187.011719 72.492188 187 72.550781 186.988281 C 72.730469 186.945312 72.914062 186.902344 73.09375 186.859375 C 73.101562 186.859375 73.109375 186.855469 73.117188 186.855469 C 73.121094 186.855469 73.125 186.855469 73.128906 186.851562 C 73.261719 186.820312 73.402344 186.785156 73.542969 186.753906 C 73.597656 186.738281 73.652344 186.726562 73.707031 186.714844 C 73.769531 186.699219 73.824219 186.679688 73.882812 186.667969 C 74.019531 186.628906 74.164062 186.597656 74.304688 186.5625 C 74.371094 186.546875 74.433594 186.527344 74.5 186.511719 C 74.652344 186.472656 74.800781 186.433594 74.953125 186.390625 C 75 186.378906 75.046875 186.367188 75.097656 186.355469 C 75.292969 186.304688 75.492188 186.246094 75.691406 186.191406 C 75.695312 186.195312 75.695312 186.195312 75.695312 186.191406 C 75.699219 186.191406 75.703125 186.1875 75.707031 186.1875 C 75.75 186.175781 75.785156 186.160156 75.832031 186.152344 C 75.992188 186.105469 76.144531 186.0625 76.304688 186.019531 C 76.371094 185.996094 76.4375 185.980469 76.503906 185.960938 C 76.648438 185.921875 76.792969 185.871094 76.9375 185.832031 C 77 185.8125 77.066406 185.792969 77.128906 185.777344 C 77.324219 185.714844 77.523438 185.65625 77.71875 185.597656 C 77.726562 185.59375 77.730469 185.589844 77.742188 185.589844 C 77.90625 185.539062 78.070312 185.484375 78.234375 185.429688 L 78.363281 185.394531 C 78.421875 185.375 78.488281 185.351562 78.546875 185.332031 L 78.996094 185.1875 C 79.0625 185.164062 79.132812 185.140625 79.203125 185.117188 C 79.359375 185.066406 79.519531 185.015625 79.679688 184.960938 C 79.730469 184.941406 79.78125 184.925781 79.835938 184.910156 C 79.855469 184.902344 79.871094 184.898438 79.890625 184.890625 C 79.960938 184.863281 80.035156 184.839844 80.105469 184.816406 C 80.226562 184.773438 80.347656 184.730469 80.46875 184.6875 C 80.511719 184.671875 80.558594 184.65625 80.605469 184.640625 C 80.773438 184.582031 80.941406 184.523438 81.101562 184.464844 C 81.175781 184.441406 81.246094 184.414062 81.3125 184.390625 C 81.382812 184.367188 81.453125 184.339844 81.523438 184.316406 C 81.570312 184.296875 81.617188 184.277344 81.667969 184.261719 C 81.703125 184.246094 81.734375 184.234375 81.769531 184.222656 C 81.835938 184.199219 81.898438 184.175781 81.964844 184.152344 C 81.984375 184.144531 82 184.140625 82.015625 184.132812 C 82.207031 184.0625 82.398438 183.992188 82.589844 183.917969 C 82.597656 183.914062 82.605469 183.914062 82.609375 183.910156 C 82.628906 183.90625 82.644531 183.898438 82.660156 183.894531 C 82.859375 183.8125 83.058594 183.746094 83.253906 183.664062 C 83.292969 183.652344 83.335938 183.632812 83.378906 183.617188 C 83.402344 183.605469 83.425781 183.597656 83.449219 183.585938 C 83.601562 183.53125 83.757812 183.464844 83.914062 183.402344 C 83.929688 183.398438 83.945312 183.390625 83.960938 183.386719 C 84 183.371094 84.039062 183.355469 84.082031 183.335938 C 84.097656 183.332031 84.113281 183.324219 84.128906 183.320312 C 84.296875 183.253906 84.457031 183.1875 84.628906 183.121094 C 84.679688 183.097656 84.730469 183.078125 84.785156 183.054688 C 84.945312 182.988281 85.109375 182.921875 85.273438 182.851562 C 85.328125 182.832031 85.378906 182.808594 85.433594 182.785156 C 85.484375 182.761719 85.539062 182.742188 85.589844 182.71875 C 85.753906 182.648438 85.925781 182.574219 86.09375 182.503906 C 86.167969 182.472656 86.234375 182.441406 86.308594 182.410156 L 86.613281 182.28125 L 86.78125 182.210938 C 86.84375 182.183594 86.914062 182.152344 86.980469 182.121094 C 87.199219 182.027344 87.417969 181.925781 87.636719 181.832031 C 87.671875 181.816406 87.707031 181.796875 87.742188 181.78125 C 87.84375 181.738281 87.945312 181.691406 88.046875 181.644531 C 88.238281 181.558594 88.425781 181.472656 88.613281 181.386719 C 88.691406 181.347656 88.769531 181.3125 88.851562 181.273438 C 89.167969 181.128906 89.484375 180.976562 89.800781 180.824219 C 89.820312 180.816406 89.839844 180.808594 89.863281 180.800781 C 90.160156 180.652344 90.457031 180.507812 90.75 180.363281 C 90.824219 180.324219 90.902344 180.289062 90.976562 180.25 C 91.257812 180.109375 91.535156 179.972656 91.808594 179.828125 C 91.832031 179.8125 91.855469 179.804688 91.882812 179.789062 C 91.886719 179.785156 91.886719 179.785156 91.890625 179.785156 C 91.929688 179.769531 91.960938 179.75 92 179.734375 C 92.050781 179.707031 92.101562 179.679688 92.15625 179.652344 C 92.375 179.535156 92.59375 179.425781 92.8125 179.308594 L 92.886719 179.265625 L 93.035156 179.191406 C 93.09375 179.15625 93.15625 179.125 93.21875 179.09375 C 93.292969 179.054688 93.371094 179.011719 93.445312 178.972656 C 93.460938 178.964844 93.476562 178.957031 93.492188 178.949219 C 93.539062 178.921875 93.582031 178.898438 93.628906 178.875 C 93.722656 178.824219 93.816406 178.769531 93.910156 178.71875 C 93.953125 178.695312 94 178.671875 94.042969 178.644531 C 94.253906 178.53125 94.464844 178.414062 94.667969 178.300781 C 94.710938 178.277344 94.753906 178.25 94.796875 178.226562 C 94.871094 178.1875 94.941406 178.144531 95.015625 178.105469 C 95.28125 177.953125 95.546875 177.800781 95.816406 177.648438 C 95.824219 177.644531 95.835938 177.636719 95.847656 177.628906 C 95.898438 177.597656 95.949219 177.566406 96.003906 177.535156 C 96.242188 177.398438 96.472656 177.261719 96.703125 177.121094 C 96.773438 177.082031 96.839844 177.042969 96.90625 177 C 96.964844 176.964844 97.023438 176.929688 97.082031 176.894531 C 97.199219 176.824219 97.3125 176.753906 97.429688 176.683594 C 97.519531 176.628906 97.609375 176.574219 97.699219 176.519531 L 97.726562 176.5 L 97.757812 176.480469 L 97.867188 176.410156 C 98.089844 176.273438 98.308594 176.136719 98.523438 176 C 98.558594 175.976562 98.59375 175.957031 98.625 175.933594 C 98.65625 175.914062 98.683594 175.898438 98.714844 175.875 C 98.828125 175.804688 98.941406 175.730469 99.054688 175.65625 L 99.257812 175.542969 L 99.449219 175.4375 L 99.488281 175.507812 L 99.589844 175.683594 C 99.597656 175.683594 99.605469 175.675781 99.613281 175.675781 C 99.613281 175.671875 99.617188 175.671875 99.621094 175.671875 C 99.78125 176.324219 99.929688 176.980469 100.074219 177.636719 C 100.089844 177.710938 100.105469 177.785156 100.121094 177.855469 L 100.121094 177.859375 C 100.234375 178.378906 100.347656 178.898438 100.449219 179.425781 C 100.507812 179.707031 100.5625 179.988281 100.613281 180.269531 C 100.671875 180.550781 100.722656 180.832031 100.773438 181.117188 L 101.371094 184.910156 L 101.460938 185.46875 C 101.472656 185.546875 101.476562 185.625 101.484375 185.703125 C 101.492188 185.761719 101.5 185.820312 101.503906 185.878906 C 101.539062 186.097656 101.5625 186.320312 101.59375 186.542969 C 101.625 186.621094 101.652344 186.699219 101.695312 186.773438 C 101.730469 186.835938 101.769531 186.894531 101.808594 186.949219 C 101.851562 187.007812 101.894531 187.058594 101.945312 187.109375 C 101.953125 187.117188 101.960938 187.125 101.972656 187.136719 C 102.449219 187.605469 103.195312 187.726562 103.8125 187.382812 C 103.867188 187.351562 103.921875 187.316406 103.972656 187.277344 C 104.292969 187.046875 104.5 186.703125 104.578125 186.335938 L 104.609375 186.074219 L 104.722656 185.140625 L 104.828125 184.320312 L 105.058594 182.46875 L 105.097656 182.125 L 105.117188 181.976562 L 105.363281 179.921875 L 105.382812 179.757812 L 106.527344 179.117188 L 107.703125 178.457031 L 107.765625 178.421875 L 107.824219 178.390625 L 108.28125 178.132812 L 107.0625 175.949219 L 106.6875 176.160156 L 106.667969 176.167969 L 106.546875 176.238281 L 105.757812 176.683594 L 105.863281 175.84375 L 106.09375 173.941406 L 106.140625 173.558594 L 106.15625 173.449219 L 106.332031 171.964844 L 106.363281 171.738281 L 106.441406 171.125 C 107.09375 170.707031 107.722656 170.292969 108.316406 169.894531 C 108.414062 169.828125 108.511719 169.761719 108.605469 169.695312 C 108.613281 169.691406 108.625 169.683594 108.632812 169.675781 C 109.007812 169.417969 109.367188 169.160156 109.710938 168.90625 C 110.148438 168.585938 110.550781 168.273438 110.921875 167.976562 C 110.964844 167.945312 111.007812 167.914062 111.042969 167.882812 C 111.3125 167.664062 111.5625 167.453125 111.792969 167.25 C 111.886719 167.167969 111.972656 167.085938 112.058594 167.007812 C 112.109375 166.960938 112.15625 166.914062 112.203125 166.871094 C 112.214844 166.859375 112.230469 166.84375 112.242188 166.832031 C 112.761719 166.324219 113.136719 165.875 113.339844 165.496094 C 113.480469 165.234375 113.53125 165.007812 113.503906 164.8125 Z M 100.847656 167.398438 C 100.847656 167.394531 100.847656 167.394531 100.847656 167.394531 C 100.851562 167.394531 100.855469 167.386719 100.855469 167.386719 C 100.855469 167.390625 100.851562 167.394531 100.847656 167.398438 Z M 100.847656 167.398438 " fill-opacity="1" fill-rule="evenodd"/></g></svg>