<svg width="457" height="87" viewBox="0 0 457 87" fill="none" xmlns="http://www.w3.org/2000/svg">
<path d="M50.25 68H39.2188L33.0312 44C32.7812 43.0208 32.3854 41.2604 31.8438 38.7188C31.2812 35.8229 30.9583 34.0208 30.875 33.3125C30.7708 34.2917 30.4583 36.1146 29.9375 38.7812C29.4167 41.4479 29.0417 43.2083 28.8125 44.0625L22.6562 68H11.6562L0 22.3125H9.53125L15.375 47.25C16.3542 51.5833 17.0938 55.5729 17.5938 59.2188C17.7188 58.0104 18.0104 56.125 18.4688 53.5625C18.9479 50.9792 19.3646 49.0938 19.7188 47.9062L26.375 22.3125H35.5312L42.1875 47.9062C42.5208 49.2396 42.8958 51.0729 43.3125 53.4062C43.75 55.7396 44.0729 57.6771 44.2812 59.2188C44.5521 57.2188 44.9062 55.0521 45.3438 52.7188C45.8021 50.3854 46.1979 48.5625 46.5312 47.25L52.3438 22.3125H61.875L50.25 68ZM153.219 32.4062C157.26 32.4062 160.333 33.5104 162.438 35.7188C164.562 37.9062 165.625 41.0729 165.625 45.2188V68H156.094V47.5938C156.094 45.0521 155.635 43.1562 154.719 41.9062C153.823 40.6562 152.406 40.0312 150.469 40.0312C147.802 40.0312 145.875 40.9271 144.688 42.7188C143.5 44.5104 142.906 47.4583 142.906 51.5625V68H133.375V33.0625H140.656L141.938 37.5625H142.469C143.51 35.875 144.958 34.5938 146.812 33.7188C148.688 32.8438 150.823 32.4062 153.219 32.4062ZM205.969 68H198.656L196.812 63.4688H196.406C194.26 66.9062 190.958 68.625 186.5 68.625C182.375 68.625 179.146 67.0417 176.812 63.875C174.479 60.6875 173.312 56.25 173.312 50.5625C173.312 44.8542 174.5 40.4062 176.875 37.2188C179.271 34.0104 182.615 32.4062 186.906 32.4062C191.198 32.4062 194.5 34.125 196.812 37.5625H197.125C196.646 34.875 196.406 32.5417 196.406 30.5625V19.375H205.969V68ZM197.062 50.6562C197.062 46.9271 196.479 44.25 195.312 42.625C194.146 40.9792 192.271 40.1562 189.688 40.1562C187.542 40.1562 185.885 41.0625 184.719 42.875C183.552 44.6875 182.969 47.3021 182.969 50.7188C182.969 54.1146 183.552 56.6875 184.719 58.4375C185.906 60.1667 187.667 61.0312 190 61.0312C192.333 61.0312 194.073 60.3333 195.219 58.9375C196.365 57.5208 196.979 55.1042 197.062 51.6875V50.6562ZM244.031 66.1562C240.823 67.8021 236.729 68.625 231.75 68.625C226.125 68.625 221.729 67.0729 218.562 63.9688C215.396 60.8646 213.812 56.4271 213.812 50.6562C213.812 44.8854 215.271 40.4167 218.188 37.25C221.104 34.0208 225.094 32.4062 230.156 32.4062C235.219 32.4062 239.115 33.8125 241.844 36.625C244.615 39.4167 246 43.3021 246 48.2812V52.9062H223.469C223.573 55.6354 224.375 57.7604 225.875 59.2812C227.396 60.7812 229.5 61.5312 232.188 61.5312C236.146 61.5312 240.094 60.6146 244.031 58.7812V66.1562ZM237.062 46.5625C237.021 44.2292 236.406 42.4167 235.219 41.125C234.052 39.8333 232.458 39.1875 230.438 39.1875C228.417 39.1875 226.823 39.8229 225.656 41.0938C224.51 42.3646 223.854 44.1875 223.688 46.5625H237.062ZM273.25 32.4062C274.562 32.4062 275.635 32.5 276.469 32.6875L275.75 41.625C275 41.4167 274.062 41.3125 272.938 41.3125C269.896 41.3125 267.521 42.0938 265.812 43.6562C264.125 45.2188 263.281 47.4062 263.281 50.2188V68H253.75V33.0625H260.969L262.375 38.9375H262.844C263.969 36.9375 265.427 35.3646 267.219 34.2188C269.052 33.0104 271.062 32.4062 273.25 32.4062ZM283.562 22.3125H298.156C303.719 22.3125 307.938 23.5104 310.812 25.9062C313.688 28.3021 315.125 31.9167 315.125 36.75C315.125 41.5625 313.583 45.2708 310.5 47.875C307.417 50.4583 303.052 51.75 297.406 51.75H293.25V68H283.562V22.3125ZM293.25 30.25V43.8125H296.438C302.375 43.8125 305.344 41.5208 305.344 36.9375C305.344 34.6458 304.719 32.9583 303.469 31.875C302.24 30.7917 300.302 30.25 297.656 30.25H293.25ZM332.531 68H323V19.375H332.531V68ZM343.5 35.5C347.542 33.3958 351.969 32.3438 356.781 32.3438C361.594 32.3438 365.229 33.375 367.688 35.4375C370.167 37.5 371.406 40.5938 371.406 44.7188V68H364.75L362.906 63.25H362.656C361.052 65.2917 359.406 66.6979 357.719 67.4688C356.031 68.2396 353.812 68.625 351.062 68.625C347.729 68.625 345.083 67.6667 343.125 65.75C341.208 63.8333 340.25 61.0729 340.25 57.4688C340.25 53.8646 341.531 51.1771 344.094 49.4062C346.656 47.6146 350.583 46.625 355.875 46.4375L361.938 46.25V44.7188C361.938 41.1771 360.125 39.4062 356.5 39.4062C353.708 39.4062 350.427 40.25 346.656 41.9375L343.5 35.5ZM350.031 57.625C350.031 60.3125 351.573 61.6562 354.656 61.6562C356.885 61.6562 358.656 61.0208 359.969 59.75C361.281 58.4792 361.938 56.7917 361.938 54.6875V51.8125L358.25 51.9375C355.479 52.0208 353.417 52.5208 352.062 53.4375C350.708 54.3542 350.031 55.75 350.031 57.625ZM401.094 32.4062C405.135 32.4062 408.208 33.5104 410.312 35.7188C412.438 37.9062 413.5 41.0729 413.5 45.2188V68H403.969V47.5938C403.969 45.0521 403.51 43.1562 402.594 41.9062C401.698 40.6562 400.281 40.0312 398.344 40.0312C395.677 40.0312 393.75 40.9271 392.562 42.7188C391.375 44.5104 390.781 47.4583 390.781 51.5625V68H381.25V33.0625H388.531L389.812 37.5625H390.344C391.385 35.875 392.833 34.5938 394.688 33.7188C396.562 32.8438 398.698 32.4062 401.094 32.4062ZM451.406 66.1562C448.198 67.8021 444.104 68.625 439.125 68.625C433.5 68.625 429.104 67.0729 425.938 63.9688C422.771 60.8646 421.188 56.4271 421.188 50.6562C421.188 44.8854 422.646 40.4167 425.562 37.25C428.479 34.0208 432.469 32.4062 437.531 32.4062C442.594 32.4062 446.49 33.8125 449.219 36.625C451.99 39.4167 453.375 43.3021 453.375 48.2812V52.9062H430.844C430.948 55.6354 431.75 57.7604 433.25 59.2812C434.771 60.7812 436.875 61.5312 439.562 61.5312C443.521 61.5312 447.469 60.6146 451.406 58.7812V66.1562ZM444.438 46.5625C444.396 44.2292 443.781 42.4167 442.594 41.125C441.427 39.8333 439.833 39.1875 437.812 39.1875C435.792 39.1875 434.198 39.8229 433.031 41.0938C431.885 42.3646 431.229 44.1875 431.062 46.5625H444.438Z" fill="#2E3793"/>
<mask id="mask0_5_84" style="mask-type:luminance" maskUnits="userSpaceOnUse" x="66" y="8" width="55" height="66">
<path d="M66 8H120.667V74H66V8Z" fill="white"/>
</mask>
<g mask="url(#mask0_5_84)">
<path fill-rule="evenodd" clip-rule="evenodd" d="M119.693 33.8645C119.688 33.7135 119.682 33.5677 119.677 33.4218C119.677 33.3541 119.672 33.2864 119.672 33.2187C119.661 33.0833 119.656 32.9583 119.651 32.8333C119.646 32.7343 119.635 32.6406 119.63 32.5416C119.625 32.4218 119.615 32.3073 119.604 32.1927C119.599 32.1093 119.589 32.026 119.583 31.9427C119.583 31.9323 119.583 31.927 119.578 31.9114C119.557 31.6458 119.531 31.3802 119.5 31.1198C119.469 30.8593 119.427 30.6041 119.391 30.3489C119.391 30.3177 119.385 30.2812 119.375 30.25C119.339 30.0052 119.297 29.7708 119.255 29.5312C119.208 29.276 119.156 29.0156 119.099 28.7552C119.042 28.5 118.984 28.2395 118.922 27.9895C118.828 27.6041 118.724 27.2239 118.609 26.8489C118.594 26.7864 118.573 26.7239 118.552 26.6614C118.536 26.5989 118.516 26.5364 118.5 26.4739C118.458 26.3593 118.427 26.2395 118.38 26.125C118.349 26.0052 118.307 25.8906 118.266 25.7708C118.25 25.7343 118.24 25.6927 118.224 25.6562C118.219 25.6302 118.208 25.6041 118.198 25.5833C118.13 25.3854 118.063 25.1927 117.99 25C117.958 24.9166 117.922 24.8333 117.891 24.75C117.828 24.5885 117.766 24.4323 117.698 24.2812C117.604 24.0364 117.5 23.8073 117.396 23.5677C117.292 23.3333 117.182 23.0989 117.068 22.8698C116.953 22.6354 116.839 22.4062 116.724 22.1823C116.641 22.026 116.563 21.8645 116.474 21.7083C116.427 21.6145 116.375 21.526 116.323 21.4375C116.229 21.2708 116.13 21.1041 116.036 20.9427C115.99 20.8593 115.948 20.7864 115.901 20.7135C115.901 20.7083 115.901 20.7083 115.896 20.7031C115.896 20.7031 115.896 20.6979 115.891 20.6979C115.891 20.6979 115.891 20.6927 115.885 20.6927C115.745 20.4531 115.594 20.2135 115.443 19.9843C115.438 19.9739 115.432 19.9635 115.422 19.9531C115.271 19.7239 115.125 19.5 114.964 19.276C114.964 19.2656 114.953 19.2604 114.948 19.25C114.802 19.0364 114.646 18.8229 114.49 18.6145C114.464 18.5729 114.432 18.5364 114.396 18.4948C114.255 18.3073 114.12 18.125 113.969 17.9427C113.948 17.9114 113.917 17.8802 113.896 17.8489C113.766 17.6823 113.63 17.5156 113.49 17.3541C113.276 17.0937 113.047 16.8385 112.828 16.5937C112.672 16.427 112.521 16.2656 112.365 16.1041C112.328 16.0677 112.292 16.026 112.25 15.9895C112.25 15.9843 112.24 15.9791 112.24 15.9739C112.099 15.8281 111.964 15.6927 111.823 15.552L111.479 15.3906L110.781 15.0625L110.589 14.9739L109.589 14.5104L108.891 14.1875L108.458 13.9843L108.13 13.8333C107.943 13.7604 107.74 13.7187 107.531 13.7083H109.734C109.708 13.6927 109.693 13.6718 109.672 13.6562C109.505 13.526 109.339 13.3958 109.167 13.2708C109.047 13.177 108.927 13.0937 108.802 13.0052C108.641 12.8906 108.484 12.7708 108.318 12.6614C108.057 12.4791 107.797 12.3073 107.531 12.1406C107.464 12.0937 107.391 12.052 107.328 12.0104C107.156 11.901 106.99 11.7968 106.818 11.6927C106.651 11.5989 106.484 11.5 106.318 11.4062C106.219 11.3489 106.13 11.302 106.036 11.2448C105.823 11.1354 105.609 11.0208 105.396 10.9114C105.375 10.8958 105.354 10.8854 105.333 10.8802C105.234 10.8281 105.135 10.776 105.036 10.7291C104.917 10.6718 104.797 10.6093 104.672 10.552C104.625 10.5312 104.583 10.5052 104.542 10.4948C104.391 10.4218 104.24 10.3489 104.089 10.2864C104.078 10.2864 104.073 10.2812 104.063 10.276C103.938 10.2187 103.813 10.1614 103.688 10.1093C103.474 10.0156 103.255 9.93225 103.036 9.84371C102.813 9.75517 102.578 9.66663 102.349 9.5885C102.266 9.55725 102.182 9.526 102.099 9.49996C101.99 9.45829 101.88 9.41663 101.771 9.38017C101.661 9.34371 101.552 9.30725 101.443 9.276C101.125 9.17183 100.813 9.07808 100.495 8.99475C100.375 8.95829 100.255 8.92704 100.135 8.89058C100.016 8.86454 99.8959 8.83329 99.7761 8.80725C99.7552 8.80204 99.7344 8.79163 99.7136 8.78642C99.6927 8.78642 99.6719 8.78121 99.6563 8.776C99.6042 8.76558 99.5521 8.74996 99.5052 8.73954C99.4375 8.72392 99.375 8.70829 99.3125 8.69267C99.2031 8.66663 99.0886 8.64058 98.974 8.62496C98.9427 8.61454 98.9063 8.60413 98.875 8.59892C98.8438 8.5885 98.8073 8.58329 98.7709 8.57808L98.4427 8.51558C98.2917 8.48433 98.1354 8.45308 97.9844 8.42704C97.75 8.39059 97.5156 8.35413 97.2865 8.31767C97.2344 8.31246 97.1875 8.30204 97.1406 8.29683C97.0938 8.29163 97.0469 8.28121 96.9948 8.276C96.6302 8.22392 96.2552 8.18225 95.8854 8.151C95.7604 8.13538 95.6354 8.13017 95.5104 8.11975C95.4948 8.11975 95.474 8.11454 95.4584 8.11454C95.349 8.10413 95.2396 8.09892 95.1354 8.09371C94.9063 8.07808 94.6771 8.06767 94.4479 8.05725H94.3854C94.2604 8.05204 94.1354 8.05204 94.0104 8.05204C93.8906 8.04683 93.7761 8.04683 93.6563 8.04683C93.6459 8.04163 93.6302 8.04163 93.6198 8.04683C93.5781 8.04163 93.5417 8.04163 93.4948 8.04163C93.4636 8.04163 93.4375 8.04163 93.4011 8.04683V8.04163H93.3386C93.2188 8.04163 93.099 8.04163 92.9844 8.04683C92.8594 8.04683 92.7344 8.04683 92.6094 8.05725H92.5469C92.3125 8.06246 92.0886 8.07288 91.8542 8.09371C91.75 8.09371 91.6406 8.10413 91.5365 8.10933C91.5156 8.10933 91.4948 8.11975 91.4792 8.11975C91.3542 8.12496 91.2292 8.13538 91.1094 8.14579C90.849 8.17183 90.5938 8.19788 90.3386 8.22913C90.224 8.23954 90.1094 8.25517 89.9948 8.276C89.9479 8.28121 89.9011 8.28642 89.849 8.29163C89.8021 8.29683 89.7552 8.30725 89.7084 8.31767C89.474 8.34371 89.2396 8.38017 89.0052 8.42704C88.875 8.44788 88.7396 8.46871 88.6094 8.49475C88.4792 8.52079 88.349 8.55204 88.2188 8.57808C88.1823 8.58329 88.1511 8.5885 88.1198 8.59371C88.0834 8.60413 88.0469 8.61454 88.0156 8.61975C87.9011 8.64059 87.7917 8.66663 87.6771 8.69267C87.6146 8.70829 87.5521 8.71871 87.4896 8.73433C87.4375 8.74996 87.3906 8.76038 87.3386 8.776C87.3177 8.78121 87.2969 8.78121 87.2761 8.78642C87.2604 8.79163 87.2344 8.79683 87.2136 8.80204C87.099 8.82808 86.9792 8.85933 86.8594 8.89058C86.7396 8.92704 86.6198 8.95829 86.5 8.99475C86.1875 9.07808 85.8698 9.17183 85.5573 9.27079C85.4427 9.30725 85.3334 9.34371 85.224 9.38017C85.1146 9.41663 85.0104 9.45308 84.9011 9.49475C84.8125 9.52079 84.7344 9.54683 84.6459 9.58329C84.4167 9.66142 84.1875 9.74996 83.9636 9.8385C83.7396 9.92704 83.5261 10.0156 83.3073 10.1093C83.1823 10.1614 83.0573 10.2135 82.9323 10.276C82.7709 10.3385 82.6146 10.4114 82.4531 10.4895C82.4063 10.5052 82.3646 10.526 82.3281 10.552C82.2656 10.5781 82.2031 10.6093 82.1406 10.6354C81.9584 10.7239 81.7813 10.8125 81.6042 10.9062C81.3854 11.0156 81.1719 11.125 80.9636 11.2448C80.8646 11.2968 80.7761 11.3489 80.6823 11.4062C80.5104 11.5 80.349 11.5989 80.1823 11.6927C80.0521 11.7708 79.9219 11.8489 79.7969 11.9218C79.4167 12.1614 79.0469 12.4062 78.6771 12.6562C78.5156 12.7708 78.3542 12.8854 78.1927 13C78.0729 13.0885 77.9531 13.177 77.8334 13.2708C77.6615 13.3906 77.4948 13.526 77.3334 13.6562C77.224 13.7448 77.1042 13.8281 77 13.9166C76.9219 13.9739 76.849 14.0416 76.7709 14.1093C76.6615 14.2031 76.5521 14.2916 76.4479 14.3802C76.2917 14.5104 76.1406 14.651 75.9896 14.7864C75.7969 14.9583 75.6146 15.1354 75.4271 15.3073C75.3125 15.4166 75.1979 15.526 75.0938 15.6354C75.0052 15.7239 74.9167 15.8177 74.8281 15.9062C74.8021 15.927 74.7813 15.9531 74.7604 15.9739C74.7084 16.026 74.6615 16.0729 74.6146 16.1302C74.5625 16.177 74.5156 16.2291 74.4636 16.2812C74.3698 16.3854 74.2709 16.4895 74.1771 16.5937C73.9479 16.8385 73.724 17.0937 73.5156 17.3541C73.4792 17.3906 73.4427 17.4323 73.4115 17.4739C73.3386 17.5573 73.2709 17.6354 73.2031 17.7239C73.1719 17.7656 73.1406 17.8073 73.1042 17.8489C73.0834 17.875 73.0573 17.9114 73.0313 17.9427C72.8854 18.125 72.7448 18.3073 72.6042 18.4895V18.4948C72.5729 18.5364 72.5365 18.5729 72.5104 18.6145C72.3698 18.802 72.2344 18.9895 72.099 19.1823C72.0834 19.2083 72.0677 19.2291 72.0521 19.25C72.0469 19.2604 72.0365 19.2656 72.0365 19.276C71.875 19.5 71.724 19.7239 71.5781 19.9531C71.5677 19.9635 71.5625 19.9739 71.5573 19.9791C71.4011 20.2135 71.2552 20.4583 71.1094 20.6979C71.1042 20.7031 71.1042 20.7031 71.099 20.7135C70.9531 20.9531 70.8125 21.1927 70.6771 21.4375C70.5365 21.6823 70.4011 21.927 70.2761 22.177C70.2188 22.2916 70.1615 22.4114 70.1042 22.5208C70.0729 22.5781 70.0417 22.6406 70.0156 22.6927C69.9844 22.7552 69.9584 22.8125 69.9323 22.8645C69.875 22.9843 69.8229 23.0989 69.7656 23.2187C69.7136 23.3333 69.6615 23.4531 69.6042 23.5677C69.5521 23.6875 69.5 23.8073 69.4479 23.9218C69.3959 24.0416 69.349 24.1614 69.3021 24.2812C69.25 24.401 69.1979 24.5208 69.1511 24.6406C69.1042 24.7552 69.0573 24.8802 69.0156 25C68.9271 25.2187 68.8542 25.4375 68.7761 25.6562C68.7604 25.6927 68.75 25.7343 68.7344 25.7708C68.6563 26.0104 68.5781 26.2395 68.5052 26.4739C68.349 26.9739 68.2084 27.4791 68.0834 27.9895C68.0156 28.2448 67.9584 28.5 67.9011 28.7604C67.849 29.0156 67.7969 29.276 67.7448 29.5312C67.7031 29.776 67.6615 30.0104 67.625 30.25C67.6198 30.2812 67.6094 30.3125 67.6094 30.3489C67.5729 30.6041 67.5365 30.8593 67.5052 31.1198C67.4688 31.3802 67.4427 31.651 67.4167 31.9166C67.3959 32.1302 67.3854 32.3333 67.3698 32.5468C67.3594 32.6406 67.3542 32.7343 67.349 32.8333C67.3334 33.0312 67.3281 33.2239 67.3229 33.4218C67.3177 33.5677 67.3125 33.7187 67.3073 33.8645C67.3073 34.0312 67.3073 34.1979 67.3073 34.3593C67.3073 34.5781 67.3073 34.7916 67.3125 35C67.3177 35.1562 67.3229 35.3125 67.3281 35.4635C67.3334 35.5989 67.3438 35.7448 67.349 35.8802C67.3542 35.9843 67.3646 36.0885 67.3698 36.1875V36.2031C67.3854 36.4531 67.4063 36.7031 67.4323 36.9531C67.4531 37.1614 67.474 37.375 67.5 37.5833C67.5052 37.6093 67.5052 37.6354 67.5104 37.6562C67.5521 37.9895 67.5938 38.3177 67.6563 38.6458C67.6979 38.9166 67.7448 39.1875 67.7969 39.4583C67.8021 39.4739 67.8073 39.4948 67.8073 39.5104C67.8594 39.776 67.9167 40.0364 67.9792 40.302C67.9792 40.3229 67.9844 40.3385 67.9896 40.3541C68.0469 40.6093 68.1146 40.8593 68.1771 41.1093C68.25 41.3802 68.3229 41.6458 68.4011 41.9114C68.474 42.1562 68.5521 42.3906 68.625 42.625C68.6302 42.6406 68.6354 42.6562 68.6406 42.6718C68.9011 42.7291 69.1615 42.7812 69.4323 42.8229C69.7761 42.875 70.1302 42.9218 70.4792 42.9479C70.849 42.9791 71.2188 42.9948 71.5938 42.9948C73.2136 42.9948 74.7709 42.7135 76.2136 42.1927C76.1198 41.9843 76.0313 41.776 75.9479 41.5729C75.0261 39.3489 74.5261 36.9062 74.5261 34.3489C74.5261 29.3489 76.4531 24.802 79.599 21.4114C80.1667 20.802 80.7709 20.2291 81.4167 19.6979C81.8906 19.3073 82.3854 18.9375 82.8959 18.5937C84.6459 17.4114 86.599 16.5156 88.6979 15.9791C88.9948 15.901 89.3021 15.8281 89.6094 15.7656C89.7604 15.7343 89.9115 15.7031 90.0625 15.677C90.0729 15.677 90.0834 15.677 90.0938 15.6718C90.1459 15.6614 90.2031 15.651 90.2552 15.6458C90.3438 15.6302 90.4271 15.6198 90.5156 15.6041C90.5261 15.6041 90.5313 15.5989 90.5417 15.5989C90.6927 15.5781 90.849 15.552 91.0052 15.5312C91.0104 15.5312 91.0209 15.5312 91.0261 15.5312C91.1771 15.5104 91.3281 15.4948 91.4792 15.4791C91.6146 15.4635 91.75 15.4531 91.8854 15.4427C91.9584 15.4375 92.0261 15.4323 92.099 15.427C92.1771 15.4218 92.2552 15.4166 92.3334 15.4114C92.3802 15.4114 92.4323 15.4062 92.4844 15.4062C92.599 15.3958 92.7136 15.3958 92.8281 15.3906C93.0209 15.3854 93.2136 15.3802 93.4063 15.3802C93.5677 15.3802 93.7292 15.3854 93.8906 15.3906C94.0469 15.3906 94.1979 15.3958 94.349 15.4062C94.3646 15.4062 94.3802 15.4062 94.3906 15.4114C94.5209 15.4114 94.6511 15.4218 94.7813 15.4323C94.8229 15.4323 94.8698 15.4375 94.9167 15.4427C95.0573 15.4531 95.1927 15.4635 95.3334 15.4791C95.4792 15.4948 95.6302 15.5104 95.7761 15.5312C95.7969 15.5312 95.8125 15.5364 95.8281 15.5364C95.9792 15.5573 96.125 15.5781 96.2761 15.5989C96.7396 15.6718 97.2031 15.7604 97.6615 15.8698C98.1146 15.9687 98.5677 16.0937 99.0052 16.2343C100.682 16.7552 102.26 17.5052 103.698 18.4479C103.693 18.4479 103.688 18.4479 103.688 18.4531C107.448 20.9166 110.276 24.6979 111.526 29.1406C113.344 28.7135 115.078 28.0781 116.714 27.2656C116.38 27.4687 116.052 27.6666 115.719 27.8645C115.667 27.901 115.604 27.9375 115.552 27.9739C115.51 27.9948 115.474 28.0156 115.432 28.0416C115.422 28.0468 115.411 28.052 115.401 28.0625C115.286 28.1302 115.172 28.1979 115.057 28.2656C114.682 28.4895 114.307 28.7135 113.932 28.9323C113.818 29 113.708 29.0625 113.604 29.125C113.266 29.3229 112.932 29.5156 112.599 29.7083C112.339 29.8593 112.078 30.0104 111.818 30.1562C112.016 31.0312 112.151 31.9323 112.224 32.8489C112.26 33.3437 112.281 33.8489 112.281 34.3489C112.281 35.3698 112.203 36.3645 112.052 37.3385C112.026 37.4791 112.005 37.6145 111.979 37.7552C112.042 37.7187 112.104 37.6875 112.167 37.6562C112.292 37.5885 112.411 37.5156 112.536 37.4479C112.594 37.4166 112.661 37.3854 112.719 37.3541C113 37.1979 113.276 37.0468 113.547 36.8906C113.604 36.8593 113.667 36.8281 113.719 36.7916C113.818 36.7448 113.917 36.6875 114.01 36.6302C114.365 36.4323 114.724 36.2239 115.078 36.0208C115.094 36.0156 115.104 36.0052 115.12 36C115.188 35.9531 115.26 35.9166 115.333 35.875C115.646 35.6875 115.953 35.5052 116.26 35.3177C116.354 35.2656 116.443 35.2135 116.536 35.1614C116.615 35.1145 116.693 35.0625 116.771 35.0208C116.922 34.927 117.078 34.8333 117.229 34.7395C115.521 36.5625 113.615 38.2031 111.542 39.625C111.385 40.177 111.198 40.7239 110.995 41.25C109.734 44.4843 107.62 47.2864 104.927 49.3698C101.74 51.8437 97.7396 53.3177 93.4011 53.3177C91.9844 53.3177 90.6042 53.1562 89.2761 52.8593C89.3229 52.8385 89.3646 52.8229 89.4115 52.802C92.9896 51.3177 96.2865 49.2864 99.1979 46.8177C99.1563 46.8333 99.1146 46.8489 99.0729 46.8698C98.849 46.9583 98.6302 47.0468 98.4063 47.1354C98.3906 47.1458 98.3698 47.151 98.349 47.1614C98.2709 47.1927 98.1979 47.2187 98.125 47.25C97.9167 47.3333 97.7084 47.4166 97.5052 47.4895C97.474 47.5052 97.4427 47.5208 97.4063 47.5312C97.3542 47.5573 97.2969 47.5781 97.2448 47.5989C96.9792 47.7031 96.7188 47.7968 96.4531 47.901C96.4323 47.9062 96.4063 47.9218 96.3854 47.9218C96.3802 47.9323 96.3698 47.9323 96.3542 47.9375C96.099 48.0312 95.849 48.1302 95.5938 48.2239C95.5729 48.2291 95.5469 48.2395 95.5261 48.2448C95.4427 48.276 95.3542 48.3073 95.2656 48.3385C95.1563 48.3854 95.0469 48.4218 94.9375 48.4635C94.8438 48.4948 94.75 48.5312 94.6563 48.5677C94.5677 48.5989 94.474 48.6302 94.375 48.6614C94.1563 48.7395 93.9375 48.8177 93.7136 48.8958C93.6511 48.9166 93.5886 48.9427 93.5261 48.9635C93.2761 49.0573 93.0156 49.1406 92.7604 49.2343C92.7344 49.2395 92.7136 49.25 92.6875 49.2552C92.6198 49.2812 92.5469 49.2968 92.4844 49.3281C92.2656 49.3958 92.0521 49.4687 91.849 49.5364C91.75 49.5677 91.6615 49.5989 91.5729 49.6302L90.9688 49.8229C90.8906 49.8489 90.8073 49.875 90.7188 49.9062L90.5573 49.9531C90.3334 50.026 90.1146 50.0989 89.8959 50.1614C89.8854 50.1666 89.875 50.1718 89.8646 50.1718C89.6042 50.2552 89.3386 50.3333 89.0781 50.4114C88.9948 50.4375 88.9115 50.4635 88.8229 50.4895C88.6302 50.5416 88.4375 50.6041 88.25 50.6562C88.1615 50.6823 88.0677 50.7083 87.9792 50.7343C87.7656 50.7916 87.5625 50.8541 87.349 50.9114C87.2917 50.927 87.2448 50.9427 87.1823 50.9583C87.1823 50.9635 87.1771 50.9635 87.1719 50.9635C87.1667 50.9687 87.1667 50.9687 87.1667 50.9635C86.9063 51.0416 86.6354 51.1145 86.375 51.1823C86.3073 51.2031 86.2448 51.2135 86.1771 51.2291C85.9792 51.2864 85.7813 51.3385 85.5781 51.3906C85.5156 51.4062 85.4584 51.4218 85.4011 51.4375C85.375 51.4427 85.3438 51.4479 85.3177 51.4583C85.3021 51.4635 85.2865 51.4635 85.2709 51.4687C85.0938 51.5156 84.9219 51.5573 84.7552 51.5989C84.6771 51.6198 84.6042 51.6406 84.5209 51.6614C84.4479 51.6823 84.375 51.6979 84.3021 51.7187C84.1146 51.7604 83.9323 51.802 83.7448 51.8437C83.7448 51.8489 83.7396 51.8489 83.7396 51.8541C83.724 51.8541 83.7084 51.8541 83.6979 51.8541C83.4584 51.9166 83.2188 51.9687 82.9792 52.026C82.9011 52.0416 82.8177 52.0625 82.7396 52.0781C82.625 52.1041 82.5052 52.1302 82.3854 52.1562C82.3542 52.1614 82.3229 52.1718 82.2917 52.177C82.2604 52.1823 82.2292 52.1875 82.1979 52.1927C82.1198 52.2135 82.0365 52.2291 81.9531 52.2448C81.75 52.2916 81.5521 52.3281 81.3542 52.3698C81.3021 52.3802 81.25 52.3906 81.1979 52.4062C80.9531 52.4531 80.7084 52.5 80.4584 52.5468C80.3959 52.5573 80.3386 52.5677 80.2761 52.5833C80.0938 52.6198 79.9011 52.6562 79.7188 52.6875C79.6459 52.7031 79.5625 52.7135 79.4844 52.7239C79.3073 52.7604 79.1302 52.7916 78.9584 52.8177L78.8646 52.8333L78.7552 52.8541C78.5156 52.8906 78.2761 52.9323 78.0365 52.9687C78.0209 52.9687 78.0104 52.9687 78 52.9739C77.7761 53.0052 77.5521 53.0416 77.3334 53.0729C77.2604 53.0781 77.1927 53.0885 77.125 53.0989C77.0313 53.1145 76.9427 53.125 76.8542 53.1354C76.7761 53.1458 76.6979 53.1562 76.6198 53.1666C76.5521 53.1718 76.4792 53.1823 76.4115 53.1927C76.2188 53.2187 76.0365 53.2395 75.849 53.2604C75.8073 53.2604 75.7656 53.2708 75.724 53.276C75.6511 53.2812 75.5781 53.2916 75.5 53.302L76.9427 55.1041L76.9948 55.1666L77.0104 55.1875L77.3073 55.5625L78.3073 56.8125L79.1875 57.9166L79.8646 58.7552V58.7604L81.8646 61.2656L81.875 61.2812L83.5521 63.375L83.9844 63.9166L87.5261 68.3489L87.8386 68.7448L87.8438 68.7552L88.4115 69.4687L88.6146 69.7135L88.849 70.0104L91.0313 72.7343L91.2917 73.0677C91.8386 73.6614 92.625 74.0312 93.4948 74.0312C94.3646 74.0312 95.1459 73.6614 95.6979 73.0729L95.9688 72.7291L98.1406 70.0104L98.3802 69.7135L98.5781 69.4687L99.1459 68.7552L99.1511 68.7604L99.8229 67.9114L100.797 66.6927L102.708 64.302L104.078 62.5781L105.12 61.2812L107.13 58.7604L107.349 58.4791L109.042 56.3645L110 55.1718L110.031 55.1302C110.036 55.1198 110.042 55.1145 110.047 55.1041L110.193 54.9218L110.411 54.6458L111.078 53.8073L112.375 52.1875L116 47.6562L116.349 47.2187L116.359 47.2083C116.63 46.7135 116.896 46.2083 117.135 45.6875C117.203 45.5468 117.276 45.4062 117.339 45.2604C117.411 45.1041 117.484 44.9427 117.542 44.7864C117.594 44.677 117.646 44.5625 117.688 44.4479C117.766 44.2708 117.839 44.0937 117.901 43.9062C117.922 43.8645 117.943 43.8177 117.958 43.776C117.974 43.7395 117.984 43.7135 117.995 43.6823C118 43.6666 118.01 43.651 118.01 43.6354C118.031 43.5781 118.052 43.526 118.073 43.4739C118.089 43.4218 118.109 43.3645 118.125 43.3125C118.214 43.0833 118.292 42.8593 118.365 42.625C118.443 42.3906 118.521 42.151 118.589 41.9114C118.667 41.6458 118.745 41.375 118.813 41.1093C118.88 40.8593 118.943 40.6041 119.005 40.3541C119.01 40.3333 119.01 40.3125 119.016 40.2968C119.078 40.0312 119.135 39.7708 119.182 39.5104C119.188 39.4895 119.188 39.4739 119.193 39.4531C119.245 39.1823 119.297 38.9166 119.339 38.6406C119.359 38.5416 119.375 38.4375 119.391 38.3333C119.401 38.2708 119.411 38.2135 119.417 38.151C119.438 37.9895 119.458 37.8229 119.479 37.6562C119.49 37.5937 119.495 37.5312 119.505 37.4687C119.526 37.2916 119.542 37.1198 119.563 36.9479C119.583 36.7031 119.604 36.4479 119.62 36.1979C119.625 36.0937 119.635 35.9895 119.641 35.8802C119.651 35.7395 119.656 35.5989 119.661 35.4583C119.667 35.3073 119.672 35.151 119.677 34.9948C119.682 34.7864 119.682 34.5729 119.682 34.3593C119.693 34.1927 119.693 34.026 119.693 33.8645Z" fill="#0094D9"/>
</g>
<mask id="mask1_5_84" style="mask-type:luminance" maskUnits="userSpaceOnUse" x="60" y="12" width="78" height="39">
<path d="M60 12H138V50.6667H60V12Z" fill="white"/>
</mask>
<g mask="url(#mask1_5_84)">
<path fill-rule="evenodd" clip-rule="evenodd" d="M137.849 18.4167C137.646 18.2396 137.354 18.1459 136.958 18.1198C136.161 18.0625 134.964 18.2917 133.495 18.7552C133.302 18.8177 133.099 18.8855 132.891 18.9584C132.812 18.9792 132.734 19.0105 132.656 19.0365C132.589 19.0573 132.521 19.0834 132.469 19.1094C132.349 19.1511 132.229 19.1875 132.115 19.2344C131.615 19.4115 131.099 19.6094 130.562 19.8282C130.021 20.0417 129.464 20.2761 128.885 20.5313C128.792 20.573 128.698 20.6146 128.604 20.6563C127.693 21.0625 126.734 21.5052 125.75 21.974L125.427 21.8282L125.005 21.6302L124.312 21.3125L124.094 21.2136L124.01 21.1719L123.792 21.0677L123.667 21.0105L122.797 20.599L122.568 20.4948L122.339 20.3855L121.573 20.0261L120.927 19.7188L120.786 19.6563L120.646 19.5886L120.031 19.3021L119.052 18.8386L119.953 18.3334L120.031 18.2917L120.104 18.2448L120.714 17.9063L119.099 14.9948L116.526 16.4375L115.344 17.1042L112.599 15.8177L112.01 15.5365L111.526 15.3125L111 15.0677V15.0625L110.656 14.9063L109.953 14.5782L109.76 14.4844L108.766 14.0261L108.068 13.7032L107.635 13.5L107.307 13.349C107.12 13.2761 106.911 13.2344 106.708 13.224H106.458C106.161 13.2396 105.865 13.323 105.583 13.474C105.302 13.6355 105.068 13.8542 104.891 14.1094C104.771 14.2813 104.682 14.4688 104.62 14.6615C104.604 14.7084 104.594 14.7448 104.583 14.7865C104.458 15.2865 104.51 15.8334 104.776 16.3125C104.823 16.4063 104.885 16.4896 104.948 16.5677C104.953 16.5782 104.964 16.5834 104.969 16.5886C105.047 16.6563 105.125 16.724 105.208 16.7865C105.208 16.7865 105.208 16.7865 105.214 16.7917C105.307 16.8698 105.406 16.9532 105.505 17.0365C105.531 17.0573 105.557 17.0782 105.583 17.099C105.609 17.125 105.63 17.1407 105.656 17.1615C105.714 17.2136 105.776 17.2552 105.828 17.3073C105.911 17.3698 105.995 17.4323 106.073 17.5052L106.453 17.8334L106.641 18L107.844 19.0521L110.49 21.3542C110.578 21.4323 110.667 21.5157 110.755 21.599C110.953 21.7761 111.146 21.9584 111.344 22.1459C111.474 22.2657 111.604 22.3855 111.734 22.5105C111.823 22.5886 111.911 22.6771 112 22.7605C112.714 23.4375 113.417 24.1198 114.109 24.8021C114.484 25.1719 114.854 25.5417 115.219 25.9167C115.359 26.0625 115.505 26.2032 115.646 26.349C115.693 26.4063 115.745 26.4584 115.797 26.5105C115.802 26.5052 115.807 26.5052 115.812 26.5C115.812 26.5105 115.807 26.5105 115.797 26.5105C115.792 26.5209 115.781 26.5313 115.766 26.5365L115.818 26.6302L115.891 26.7709C115.557 26.974 115.229 27.1771 114.891 27.3802C114.839 27.4115 114.776 27.448 114.724 27.4844C114.682 27.5052 114.646 27.5313 114.609 27.5521C114.599 27.5573 114.583 27.5625 114.573 27.573C114.458 27.6407 114.349 27.7084 114.234 27.7761C113.854 28 113.479 28.224 113.104 28.4427C112.995 28.5105 112.885 28.573 112.776 28.6407C112.437 28.8334 112.104 29.0261 111.776 29.2188C111.51 29.3698 111.25 29.5209 110.99 29.6667C110.979 29.6719 110.969 29.6823 110.958 29.6875C110.807 29.7709 110.656 29.8594 110.505 29.9427C110.161 30.1355 109.818 30.3282 109.484 30.5157C109.432 30.5417 109.385 30.5677 109.344 30.5938C109.224 30.6615 109.099 30.7292 108.979 30.7969C108.656 30.974 108.344 31.1459 108.031 31.3177C107.589 31.5573 107.156 31.7917 106.74 32.0157C106.641 32.0677 106.547 32.1198 106.453 32.1719C103.823 33.573 101.766 34.5938 100.839 35.0261C100.781 35.0521 100.724 35.0782 100.672 35.099C99.9687 35.4167 98.2448 36.1198 95.9062 37C95.5 37.1563 95.0781 37.3125 94.6302 37.474C94.0208 37.7032 93.375 37.9375 92.7083 38.1719C92.2083 38.3542 91.6979 38.5313 91.1719 38.7136C90.4635 38.9636 89.7292 39.2084 88.9792 39.4584C88.5521 39.6042 88.1198 39.7448 87.6823 39.8907C87.3802 39.9896 87.0833 40.0834 86.776 40.1823C86.4948 40.2709 86.2135 40.3594 85.9271 40.448C85.3906 40.6198 84.8542 40.7865 84.3125 40.948C84.0156 41.0365 83.7187 41.125 83.4219 41.2136C83.4167 41.2188 83.4167 41.2188 83.4167 41.2136C82.3281 41.5313 81.224 41.8386 80.1406 42.1302C80.1094 42.1407 80.0781 42.1459 80.0521 42.1511C80.0417 42.1563 80.026 42.1615 80.0156 42.1667C79.4479 42.3125 78.8802 42.4584 78.3177 42.5938C77.7865 42.724 77.2552 42.849 76.7344 42.9636C76.5417 43.0052 76.349 43.0521 76.1562 43.0886C76.1354 43.0938 76.1094 43.099 76.0885 43.1042C75.0625 43.323 74.0677 43.5157 73.1094 43.6667C73.1094 43.6667 73.1042 43.6667 73.099 43.6667C71.7552 43.8855 70.4948 44.0261 69.3437 44.0782C69.3021 44.0782 69.2604 44.0782 69.2135 44.0782C69.0885 44.0834 68.9635 44.0886 68.8437 44.0938C68.7396 44.0938 68.6354 44.099 68.5312 44.0938C68.2708 44.099 68.0156 44.0938 67.7708 44.0834C66 44.0105 64.6406 43.6355 63.8958 42.8438L63.8802 42.8334C63.8333 42.7813 63.7865 42.724 63.7448 42.6667C63.6354 42.5209 63.5365 42.3698 63.4635 42.198C63.4583 42.1875 63.4531 42.1719 63.4479 42.1615C63.3958 42.0365 63.3437 41.9115 63.3073 41.7865C63.2552 41.6198 63.2083 41.4584 63.1771 41.2865C63.1146 40.9792 63.0885 40.6615 63.0885 40.3386C63.0885 40.2709 63.0885 40.2136 63.0937 40.1459V40.1302C63.0937 40.0782 63.099 40.0261 63.1042 39.974C63.1302 39.573 63.1979 39.1615 63.3125 38.7396C63.3854 38.4688 63.474 38.1875 63.5833 37.9011C63.8333 37.2396 64.1719 36.5521 64.599 35.8438C64.8958 35.3438 65.2396 34.8334 65.625 34.3177V33.3334C65.5885 33.3698 65.5521 33.4115 65.5156 33.448C65.1979 33.7761 64.8906 34.1042 64.599 34.4271C62.5729 36.6719 61.1562 38.823 60.4583 40.7657C60.375 41.0157 60.2969 41.2605 60.2292 41.5052C60.1979 41.6302 60.1667 41.7552 60.1406 41.8802C60.0625 42.2292 60.0156 42.5677 59.9896 42.9011V42.9063C59.9427 43.5625 60 44.1927 60.1719 44.7761C60.2344 44.9792 60.3021 45.1771 60.3906 45.375C60.4583 45.5209 60.5312 45.6667 60.6094 45.8073C60.6615 45.8907 60.7083 45.9688 60.7604 46.0469C60.7604 46.0521 60.7604 46.0521 60.7604 46.0521C61.5521 47.2448 62.8958 48.1198 64.6979 48.698C64.6979 48.7032 64.6979 48.7032 64.6979 48.7032C64.8021 48.7344 64.9115 48.7657 65.0208 48.8021C65.0208 48.7969 65.0208 48.7969 65.026 48.8021C65.1719 48.849 65.3177 48.8803 65.4687 48.9219C65.5052 48.9323 65.5417 48.9375 65.5729 48.948C65.6875 48.9792 65.8021 49.0052 65.9219 49.0313C65.9635 49.0417 66.0052 49.0521 66.0521 49.0573C66.1719 49.0886 66.2969 49.1094 66.4271 49.1355L66.5156 49.1563C66.5365 49.1563 66.5573 49.1615 66.5729 49.1615C66.7187 49.1875 66.8594 49.2136 67.0052 49.2396L67.0677 49.2448C67.1302 49.2552 67.1927 49.2657 67.2552 49.2761C67.3385 49.2865 67.4167 49.2969 67.5052 49.3073C67.5469 49.3125 67.599 49.323 67.6406 49.3282C67.776 49.3438 67.901 49.3594 68.0312 49.375C68.0781 49.375 68.125 49.3802 68.1719 49.3907C68.3385 49.4063 68.5104 49.4219 68.6771 49.4375C68.6823 49.4427 68.6927 49.4428 68.6979 49.4428C68.875 49.4532 69.0573 49.4636 69.2448 49.474C69.2917 49.474 69.3333 49.4792 69.3802 49.4792C69.5208 49.4896 69.6667 49.4948 69.8073 49.5053C69.8594 49.5105 69.9167 49.5105 69.974 49.5105C70.125 49.5105 70.2708 49.5209 70.4219 49.5209C70.4635 49.5261 70.5052 49.5209 70.5469 49.5261C70.7396 49.5313 70.9375 49.5313 71.1354 49.5313C71.1615 49.5313 71.1875 49.5313 71.2187 49.5313H71.2292C71.3958 49.5313 71.5625 49.5313 71.7344 49.5261C71.7917 49.5209 71.8542 49.5209 71.9115 49.5209C71.9531 49.5209 72 49.5209 72.0469 49.5209C72.1302 49.5157 72.2083 49.5157 72.2917 49.5105H72.3698C72.4219 49.5053 72.4792 49.5053 72.5365 49.5053C72.6094 49.5053 72.6771 49.5 72.7448 49.4948C72.875 49.4896 73.0052 49.4844 73.1354 49.474C73.1458 49.474 73.151 49.474 73.1615 49.474C73.3698 49.4636 73.5833 49.448 73.8021 49.4375C73.8594 49.4323 73.9167 49.4323 73.974 49.4219C74.1302 49.4063 74.2917 49.4011 74.4531 49.3855C74.5208 49.3803 74.5885 49.375 74.6562 49.3698C74.8281 49.3542 74.9948 49.3386 75.1667 49.323C75.2187 49.3177 75.2708 49.3177 75.3229 49.3073C75.5469 49.2813 75.7708 49.2605 75.9896 49.2344C76.0365 49.2344 76.0729 49.224 76.1146 49.2188C76.2292 49.2084 76.3385 49.198 76.4479 49.1823C76.4531 49.1823 76.4531 49.1823 76.4583 49.1823L76.6771 49.1563C76.7448 49.1459 76.8177 49.1355 76.8906 49.125C76.9635 49.1146 77.0417 49.1042 77.1198 49.0938C77.2135 49.0834 77.3021 49.073 77.3906 49.0573C77.4635 49.0469 77.5312 49.0365 77.599 49.0313C77.8177 49 78.0417 48.9636 78.2656 48.9323C78.2812 48.9323 78.2917 48.9271 78.3021 48.9271C78.5417 48.8907 78.7812 48.8542 79.0208 48.8125L79.1302 48.7917L79.224 48.7761C79.401 48.75 79.5781 48.7188 79.75 48.6823C79.8281 48.6719 79.9115 48.6563 79.9896 48.6459C80.1719 48.6146 80.3594 48.5782 80.5417 48.5417C80.5625 48.5365 80.5885 48.5313 80.6094 48.5261C80.6458 48.5209 80.6823 48.5157 80.7135 48.5105C80.7187 48.5105 80.724 48.5053 80.724 48.5053C80.974 48.4584 81.2187 48.4115 81.4687 48.3594C81.5208 48.3542 81.5729 48.3386 81.6198 48.3282C81.8229 48.2865 82.0208 48.2448 82.2187 48.2032C82.3021 48.1875 82.3854 48.1667 82.4635 48.1511C82.4948 48.1459 82.526 48.1407 82.5573 48.1303C82.5885 48.125 82.6198 48.1198 82.651 48.1094C82.7708 48.0834 82.8906 48.0573 83.0104 48.0313C83.0885 48.0157 83.1667 48 83.2448 47.9844C83.4844 47.9271 83.7292 47.8698 83.9687 47.8125C83.9792 47.8125 83.9896 47.8073 84 47.8073C84.0052 47.8073 84.0104 47.8073 84.0156 47.8021C84.1927 47.7605 84.3802 47.7136 84.5677 47.6719C84.6406 47.6511 84.7135 47.6355 84.7865 47.6198C84.8698 47.599 84.9427 47.573 85.0208 47.5573C85.2031 47.5052 85.3958 47.4636 85.5833 47.4167C85.6719 47.3959 85.7552 47.3698 85.8437 47.349C86.0469 47.2969 86.2448 47.2448 86.4479 47.1875C86.5104 47.1719 86.5729 47.1563 86.6406 47.1407C86.901 47.073 87.1667 46.9948 87.4323 46.9219C87.4375 46.9271 87.4375 46.9271 87.4375 46.9219C87.4427 46.9219 87.4479 46.9167 87.4531 46.9167C87.5104 46.9011 87.5573 46.8802 87.6198 46.8698C87.8333 46.8073 88.0365 46.75 88.25 46.6928C88.3385 46.6615 88.4271 46.6407 88.5156 46.6146C88.7083 46.5625 88.901 46.4948 89.0937 46.4428C89.1771 46.4167 89.2656 46.3907 89.349 46.3698C89.6094 46.2865 89.875 46.2084 90.1354 46.1303C90.1458 46.125 90.151 46.1198 90.1667 46.1198C90.3854 46.0521 90.6042 45.9792 90.8229 45.9063L90.9948 45.8594C91.0729 45.8334 91.1615 45.8021 91.2396 45.7761L91.8385 45.5834C91.9271 45.5521 92.0208 45.5209 92.1146 45.4896C92.3229 45.4219 92.5365 45.3542 92.75 45.2813C92.8177 45.2552 92.8854 45.2344 92.9583 45.2136C92.9844 45.2032 93.0052 45.198 93.0312 45.1875C93.125 45.1511 93.224 45.1198 93.3177 45.0886C93.4792 45.0313 93.6406 44.974 93.8021 44.9167C93.8594 44.8959 93.9219 44.875 93.9844 44.8542C94.2083 44.7761 94.4323 44.698 94.6458 44.6198C94.7448 44.5886 94.8385 44.5521 94.9271 44.5209C95.0208 44.4896 95.1146 44.4532 95.2083 44.4219C95.2708 44.3959 95.3333 44.3698 95.401 44.349C95.4479 44.3282 95.4896 44.3125 95.5365 44.2969C95.625 44.2657 95.7083 44.2344 95.7969 44.2032C95.8229 44.1927 95.8437 44.1875 95.8646 44.1771C96.1198 44.0834 96.375 43.9896 96.6302 43.8907C96.6406 43.8855 96.651 43.8855 96.6562 43.8802C96.6823 43.875 96.7031 43.8646 96.724 43.8594C96.9896 43.75 97.2552 43.6615 97.5156 43.5521C97.5677 43.5365 97.625 43.5105 97.6823 43.4896C97.7135 43.474 97.7448 43.4636 97.776 43.448C97.9792 43.375 98.1875 43.2865 98.3958 43.2032C98.4167 43.198 98.4375 43.1875 98.4583 43.1823C98.5104 43.1615 98.5625 43.1407 98.6198 43.1146C98.6406 43.1094 98.6615 43.099 98.6823 43.0938C98.9062 43.0053 99.1198 42.9167 99.349 42.8282C99.4167 42.7969 99.4844 42.7709 99.5573 42.7396C99.7708 42.6511 99.9896 42.5625 100.208 42.4688C100.281 42.4428 100.349 42.4115 100.422 42.3802C100.49 42.349 100.562 42.323 100.63 42.2917C100.849 42.198 101.078 42.099 101.302 42.0052C101.401 41.9636 101.49 41.9219 101.589 41.8802L101.995 41.7084L102.219 41.6146C102.302 41.5782 102.396 41.5365 102.484 41.4948C102.776 41.3698 103.068 41.2344 103.359 41.1094C103.406 41.0886 103.453 41.0625 103.5 41.0417C103.635 40.9844 103.771 40.9219 103.906 40.8594C104.161 40.7448 104.411 40.6302 104.661 40.5157C104.766 40.4636 104.87 40.4167 104.979 40.3646C105.401 40.1719 105.823 39.9688 106.245 39.7657C106.271 39.7552 106.297 39.7448 106.328 39.7344C106.724 39.5365 107.12 39.3438 107.51 39.1511C107.609 39.099 107.714 39.0521 107.812 39C108.187 38.8125 108.557 38.6302 108.922 38.4375C108.953 38.4167 108.984 38.4063 109.021 38.3855C109.026 38.3803 109.026 38.3802 109.031 38.3802C109.083 38.3594 109.125 38.3334 109.177 38.3125C109.245 38.2761 109.312 38.2396 109.385 38.2032C109.677 38.0469 109.969 37.9011 110.26 37.7448L110.359 37.6875L110.557 37.5886C110.635 37.5417 110.719 37.5 110.802 37.4584C110.901 37.4063 111.005 37.349 111.104 37.2969C111.125 37.2865 111.146 37.2761 111.167 37.2657C111.229 37.2292 111.286 37.198 111.349 37.1667C111.474 37.099 111.599 37.0261 111.724 36.9584C111.781 36.9271 111.844 36.8959 111.901 36.8594C112.182 36.7084 112.464 36.5521 112.734 36.4011C112.792 36.3698 112.849 36.3334 112.906 36.3021C113.005 36.25 113.099 36.1927 113.198 36.1407C113.552 35.9375 113.906 35.7344 114.266 35.5313C114.276 35.5261 114.292 35.5157 114.307 35.5052C114.375 35.4636 114.443 35.4219 114.516 35.3802C114.833 35.198 115.141 35.0157 115.448 34.8282C115.542 34.7761 115.63 34.724 115.719 34.6667C115.797 34.6198 115.875 34.573 115.953 34.5261C116.109 34.4323 116.26 34.3386 116.417 34.2448C116.536 34.1719 116.656 34.099 116.776 34.0261L116.812 34L116.854 33.974L117 33.8802C117.297 33.698 117.589 33.5157 117.875 33.3334C117.922 33.3021 117.969 33.2761 118.01 33.2448C118.052 33.2188 118.089 33.198 118.13 33.1667C118.281 33.073 118.432 32.974 118.583 32.875L118.854 32.724L119.109 32.5834L119.161 32.6771L119.297 32.9115C119.307 32.9115 119.318 32.9011 119.328 32.9011C119.328 32.8959 119.333 32.8959 119.339 32.8959C119.552 33.7657 119.75 34.6407 119.943 35.5157C119.964 35.6146 119.984 35.7136 120.005 35.8073V35.8125C120.156 36.5052 120.307 37.198 120.443 37.9011C120.521 38.2761 120.594 38.6511 120.661 39.0261C120.74 39.4011 120.807 39.7761 120.875 40.1563L121.672 45.2136L121.792 45.9584C121.807 46.0625 121.812 46.1667 121.823 46.2709C121.833 46.349 121.844 46.4271 121.849 46.5053C121.896 46.7969 121.927 47.0938 121.969 47.3907C122.01 47.4948 122.047 47.599 122.104 47.698C122.151 47.7813 122.203 47.8594 122.255 47.9323C122.312 48.0105 122.37 48.0782 122.437 48.1459C122.448 48.1563 122.458 48.1667 122.474 48.1823C123.109 48.8073 124.104 48.9688 124.927 48.5105C125 48.4688 125.073 48.4219 125.141 48.3698C125.568 48.0625 125.844 47.6042 125.948 47.1146L125.99 46.7657L126.141 45.5209L126.281 44.4271L126.589 41.9584L126.641 41.5L126.667 41.3021L126.995 38.5625L127.021 38.3438L128.547 37.4896L130.115 36.6094L130.198 36.5625L130.276 36.5209L130.885 36.1771L129.26 33.2657L128.76 33.5469L128.734 33.5573L128.573 33.6511L127.521 34.2448L127.661 33.125L127.969 30.5886L128.031 30.0782L128.052 29.9323L128.286 27.9532L128.328 27.6511L128.432 26.8334C129.302 26.2761 130.141 25.724 130.932 25.1927C131.062 25.1042 131.193 25.0157 131.318 24.9271C131.328 24.9219 131.344 24.9115 131.354 24.9011C131.854 24.5573 132.333 24.2136 132.792 23.875C133.375 23.448 133.911 23.0313 134.406 22.6355C134.464 22.5938 134.521 22.5521 134.568 22.5105C134.927 22.2188 135.26 21.9375 135.568 21.6667C135.693 21.5573 135.807 21.448 135.922 21.3438C135.99 21.2813 136.052 21.2188 136.115 21.1615C136.13 21.1459 136.151 21.125 136.167 21.1094C136.859 20.4323 137.359 19.8334 137.63 19.3282C137.818 18.9792 137.885 18.6771 137.849 18.4167ZM120.974 21.8646C120.974 21.8594 120.974 21.8594 120.974 21.8594C120.979 21.8594 120.984 21.849 120.984 21.849C120.984 21.8542 120.979 21.8594 120.974 21.8646Z" fill="#2C3491"/>
</g>
</svg>
